%TF.GenerationSoftware,KiCad,Pcbnew,(7.0.0)*%
%TF.CreationDate,2023-08-31T15:59:47+04:00*%
%TF.ProjectId,RD53B_Quad_ZIF_to_ERF8_Data_Adapter,52443533-425f-4517-9561-645f5a49465f,V0*%
%TF.SameCoordinates,Original*%
%TF.FileFunction,AssemblyDrawing,Bot*%
%FSLAX46Y46*%
G04 Gerber Fmt 4.6, Leading zero omitted, Abs format (unit mm)*
G04 Created by KiCad (PCBNEW (7.0.0)) date 2023-08-31 15:59:47*
%MOMM*%
%LPD*%
G01*
G04 APERTURE LIST*
%ADD10C,0.100000*%
%ADD11C,0.200000*%
G04 APERTURE END LIST*
D10*
%TO.C,J5*%
X126420500Y-80010000D02*
X129560500Y-80010000D01*
X126420500Y-84010000D02*
X126420500Y-80010000D01*
X126420500Y-84010000D02*
X131420500Y-84010000D01*
X126420500Y-89210000D02*
X126420500Y-84010000D01*
X126420500Y-89210000D02*
X131420500Y-89210000D01*
X129560500Y-77010000D02*
X175280500Y-77010000D01*
X129560500Y-80010000D02*
X129560500Y-77010000D01*
X129560500Y-80010000D02*
X175280500Y-80010000D01*
X131420500Y-84010000D02*
X173420500Y-84010000D01*
X131420500Y-89210000D02*
X131420500Y-84010000D01*
X173420500Y-84010000D02*
X173420500Y-89210000D01*
X173420500Y-84010000D02*
X178420500Y-84010000D01*
X173420500Y-89210000D02*
X178420500Y-89210000D01*
X175280500Y-77010000D02*
X175280500Y-80010000D01*
X175280500Y-80010000D02*
X178420500Y-80010000D01*
X178420500Y-80010000D02*
X178420500Y-84010000D01*
X178420500Y-84010000D02*
X178420500Y-89210000D01*
D11*
X132920500Y-88210000D02*
G75*
G03*
X132920500Y-88210000I-100000J0D01*
G01*
%TD*%
D10*
%TO.C,J2*%
X133570500Y-103622000D02*
X133570500Y-105322000D01*
X135270500Y-105322000D01*
X135270500Y-103622000D01*
X133570500Y-103622000D01*
X132730500Y-104472000D02*
X132730500Y-104472000D01*
X132730500Y-104472000D02*
G75*
G03*
X131030500Y-104472000I-850000J0D01*
G01*
X131030500Y-104472000D02*
X131030500Y-104472000D01*
X131030500Y-104472000D02*
G75*
G03*
X132730500Y-104472000I850000J0D01*
G01*
%TD*%
%TO.C,J5*%
X131420500Y-88010000D02*
G75*
G03*
X131420500Y-88010000I-1110000J0D01*
G01*
X132570500Y-85330000D02*
X132570500Y-86810000D01*
X133070500Y-86810000D01*
X133070500Y-85330000D01*
X132570500Y-85330000D01*
X133370500Y-85330000D02*
X133370500Y-86810000D01*
X133870500Y-86810000D01*
X133870500Y-85330000D01*
X133370500Y-85330000D01*
X134170500Y-85330000D02*
X134170500Y-86810000D01*
X134670500Y-86810000D01*
X134670500Y-85330000D01*
X134170500Y-85330000D01*
X134970500Y-85330000D02*
X134970500Y-86810000D01*
X135470500Y-86810000D01*
X135470500Y-85330000D01*
X134970500Y-85330000D01*
X135770500Y-85330000D02*
X135770500Y-86810000D01*
X136270500Y-86810000D01*
X136270500Y-85330000D01*
X135770500Y-85330000D01*
X136570500Y-85330000D02*
X136570500Y-86810000D01*
X137070500Y-86810000D01*
X137070500Y-85330000D01*
X136570500Y-85330000D01*
X137370500Y-85330000D02*
X137370500Y-86810000D01*
X137870500Y-86810000D01*
X137870500Y-85330000D01*
X137370500Y-85330000D01*
X138170500Y-85330000D02*
X138170500Y-86810000D01*
X138670500Y-86810000D01*
X138670500Y-85330000D01*
X138170500Y-85330000D01*
X138970500Y-85330000D02*
X138970500Y-86810000D01*
X139470500Y-86810000D01*
X139470500Y-85330000D01*
X138970500Y-85330000D01*
X139770500Y-85330000D02*
X139770500Y-86810000D01*
X140270500Y-86810000D01*
X140270500Y-85330000D01*
X139770500Y-85330000D01*
X140570500Y-85330000D02*
X140570500Y-86810000D01*
X141070500Y-86810000D01*
X141070500Y-85330000D01*
X140570500Y-85330000D01*
X141370500Y-85330000D02*
X141370500Y-86810000D01*
X141870500Y-86810000D01*
X141870500Y-85330000D01*
X141370500Y-85330000D01*
X142170500Y-85330000D02*
X142170500Y-86810000D01*
X142670500Y-86810000D01*
X142670500Y-85330000D01*
X142170500Y-85330000D01*
X142970500Y-85330000D02*
X142970500Y-86810000D01*
X143470500Y-86810000D01*
X143470500Y-85330000D01*
X142970500Y-85330000D01*
X143770500Y-85330000D02*
X143770500Y-86810000D01*
X144270500Y-86810000D01*
X144270500Y-85330000D01*
X143770500Y-85330000D01*
X144570500Y-85330000D02*
X144570500Y-86810000D01*
X145070500Y-86810000D01*
X145070500Y-85330000D01*
X144570500Y-85330000D01*
X145370500Y-85330000D02*
X145370500Y-86810000D01*
X145870500Y-86810000D01*
X145870500Y-85330000D01*
X145370500Y-85330000D01*
X146170500Y-85330000D02*
X146170500Y-86810000D01*
X146670500Y-86810000D01*
X146670500Y-85330000D01*
X146170500Y-85330000D01*
X146970500Y-85330000D02*
X146970500Y-86810000D01*
X147470500Y-86810000D01*
X147470500Y-85330000D01*
X146970500Y-85330000D01*
X147770500Y-85330000D02*
X147770500Y-86810000D01*
X148270500Y-86810000D01*
X148270500Y-85330000D01*
X147770500Y-85330000D01*
X148570500Y-85330000D02*
X148570500Y-86810000D01*
X149070500Y-86810000D01*
X149070500Y-85330000D01*
X148570500Y-85330000D01*
X149370500Y-85330000D02*
X149370500Y-86810000D01*
X149870500Y-86810000D01*
X149870500Y-85330000D01*
X149370500Y-85330000D01*
X150170500Y-85330000D02*
X150170500Y-86810000D01*
X150670500Y-86810000D01*
X150670500Y-85330000D01*
X150170500Y-85330000D01*
X150970500Y-85330000D02*
X150970500Y-86810000D01*
X151470500Y-86810000D01*
X151470500Y-85330000D01*
X150970500Y-85330000D01*
X151770500Y-85330000D02*
X151770500Y-86810000D01*
X152270500Y-86810000D01*
X152270500Y-85330000D01*
X151770500Y-85330000D01*
X152570500Y-85330000D02*
X152570500Y-86810000D01*
X153070500Y-86810000D01*
X153070500Y-85330000D01*
X152570500Y-85330000D01*
X153370500Y-85330000D02*
X153370500Y-86810000D01*
X153870500Y-86810000D01*
X153870500Y-85330000D01*
X153370500Y-85330000D01*
X154170500Y-85330000D02*
X154170500Y-86810000D01*
X154670500Y-86810000D01*
X154670500Y-85330000D01*
X154170500Y-85330000D01*
X154970500Y-85330000D02*
X154970500Y-86810000D01*
X155470500Y-86810000D01*
X155470500Y-85330000D01*
X154970500Y-85330000D01*
X155770500Y-85330000D02*
X155770500Y-86810000D01*
X156270500Y-86810000D01*
X156270500Y-85330000D01*
X155770500Y-85330000D01*
X156570500Y-85330000D02*
X156570500Y-86810000D01*
X157070500Y-86810000D01*
X157070500Y-85330000D01*
X156570500Y-85330000D01*
X157370500Y-85330000D02*
X157370500Y-86810000D01*
X157870500Y-86810000D01*
X157870500Y-85330000D01*
X157370500Y-85330000D01*
X158170500Y-85330000D02*
X158170500Y-86810000D01*
X158670500Y-86810000D01*
X158670500Y-85330000D01*
X158170500Y-85330000D01*
X158970500Y-85330000D02*
X158970500Y-86810000D01*
X159470500Y-86810000D01*
X159470500Y-85330000D01*
X158970500Y-85330000D01*
X159770500Y-85330000D02*
X159770500Y-86810000D01*
X160270500Y-86810000D01*
X160270500Y-85330000D01*
X159770500Y-85330000D01*
X160570500Y-85330000D02*
X160570500Y-86810000D01*
X161070500Y-86810000D01*
X161070500Y-85330000D01*
X160570500Y-85330000D01*
X161370500Y-85330000D02*
X161370500Y-86810000D01*
X161870500Y-86810000D01*
X161870500Y-85330000D01*
X161370500Y-85330000D01*
X162170500Y-85330000D02*
X162170500Y-86810000D01*
X162670500Y-86810000D01*
X162670500Y-85330000D01*
X162170500Y-85330000D01*
X162970500Y-85330000D02*
X162970500Y-86810000D01*
X163470500Y-86810000D01*
X163470500Y-85330000D01*
X162970500Y-85330000D01*
X163770500Y-85330000D02*
X163770500Y-86810000D01*
X164270500Y-86810000D01*
X164270500Y-85330000D01*
X163770500Y-85330000D01*
X164570500Y-85330000D02*
X164570500Y-86810000D01*
X165070500Y-86810000D01*
X165070500Y-85330000D01*
X164570500Y-85330000D01*
X165370500Y-85330000D02*
X165370500Y-86810000D01*
X165870500Y-86810000D01*
X165870500Y-85330000D01*
X165370500Y-85330000D01*
X166170500Y-85330000D02*
X166170500Y-86810000D01*
X166670500Y-86810000D01*
X166670500Y-85330000D01*
X166170500Y-85330000D01*
X166970500Y-85330000D02*
X166970500Y-86810000D01*
X167470500Y-86810000D01*
X167470500Y-85330000D01*
X166970500Y-85330000D01*
X167770500Y-85330000D02*
X167770500Y-86810000D01*
X168270500Y-86810000D01*
X168270500Y-85330000D01*
X167770500Y-85330000D01*
X168570500Y-85330000D02*
X168570500Y-86810000D01*
X169070500Y-86810000D01*
X169070500Y-85330000D01*
X168570500Y-85330000D01*
X169370500Y-85330000D02*
X169370500Y-86810000D01*
X169870500Y-86810000D01*
X169870500Y-85330000D01*
X169370500Y-85330000D01*
X170170500Y-85330000D02*
X170170500Y-86810000D01*
X170670500Y-86810000D01*
X170670500Y-85330000D01*
X170170500Y-85330000D01*
X170970500Y-85330000D02*
X170970500Y-86810000D01*
X171470500Y-86810000D01*
X171470500Y-85330000D01*
X170970500Y-85330000D01*
X171770500Y-85330000D02*
X171770500Y-86810000D01*
X172270500Y-86810000D01*
X172270500Y-85330000D01*
X171770500Y-85330000D01*
X127170500Y-85210000D02*
X127170500Y-87210000D01*
X128670500Y-87210000D01*
X128670500Y-85210000D01*
X127170500Y-85210000D01*
X176170500Y-85210000D02*
X176170500Y-87210000D01*
X177670500Y-87210000D01*
X177670500Y-85210000D01*
X176170500Y-85210000D01*
%TD*%
%TO.C,*%
X120048000Y-116510000D02*
G75*
G03*
X120048000Y-116510000I-1600000J0D01*
G01*
%TD*%
%TO.C,*%
X188048000Y-87010000D02*
G75*
G03*
X188048000Y-87010000I-1600000J0D01*
G01*
%TD*%
%TO.C,J4*%
X169570500Y-101950000D02*
X169570500Y-103650000D01*
X171270500Y-103650000D01*
X171270500Y-101950000D01*
X169570500Y-101950000D01*
X172110500Y-102800000D02*
X172110500Y-102800000D01*
X172110500Y-102800000D02*
G75*
G03*
X173810500Y-102800000I850000J0D01*
G01*
X173810500Y-102800000D02*
X173810500Y-102800000D01*
X173810500Y-102800000D02*
G75*
G03*
X172110500Y-102800000I-850000J0D01*
G01*
X169570500Y-105340000D02*
X169570500Y-105340000D01*
X169570500Y-105340000D02*
G75*
G03*
X171270500Y-105340000I850000J0D01*
G01*
X171270500Y-105340000D02*
X171270500Y-105340000D01*
X171270500Y-105340000D02*
G75*
G03*
X169570500Y-105340000I-850000J0D01*
G01*
X172110500Y-105340000D02*
X172110500Y-105340000D01*
X172110500Y-105340000D02*
G75*
G03*
X173810500Y-105340000I850000J0D01*
G01*
X173810500Y-105340000D02*
X173810500Y-105340000D01*
X173810500Y-105340000D02*
G75*
G03*
X172110500Y-105340000I-850000J0D01*
G01*
X169570500Y-107880000D02*
X169570500Y-107880000D01*
X169570500Y-107880000D02*
G75*
G03*
X171270500Y-107880000I850000J0D01*
G01*
X171270500Y-107880000D02*
X171270500Y-107880000D01*
X171270500Y-107880000D02*
G75*
G03*
X169570500Y-107880000I-850000J0D01*
G01*
X172110500Y-107880000D02*
X172110500Y-107880000D01*
X172110500Y-107880000D02*
G75*
G03*
X173810500Y-107880000I850000J0D01*
G01*
X173810500Y-107880000D02*
X173810500Y-107880000D01*
X173810500Y-107880000D02*
G75*
G03*
X172110500Y-107880000I-850000J0D01*
G01*
X169570500Y-110420000D02*
X169570500Y-110420000D01*
X169570500Y-110420000D02*
G75*
G03*
X171270500Y-110420000I850000J0D01*
G01*
X171270500Y-110420000D02*
X171270500Y-110420000D01*
X171270500Y-110420000D02*
G75*
G03*
X169570500Y-110420000I-850000J0D01*
G01*
X172110500Y-110420000D02*
X172110500Y-110420000D01*
X172110500Y-110420000D02*
G75*
G03*
X173810500Y-110420000I850000J0D01*
G01*
X173810500Y-110420000D02*
X173810500Y-110420000D01*
X173810500Y-110420000D02*
G75*
G03*
X172110500Y-110420000I-850000J0D01*
G01*
%TD*%
%TO.C,J3*%
X133570500Y-110037000D02*
X133570500Y-111737000D01*
X135270500Y-111737000D01*
X135270500Y-110037000D01*
X133570500Y-110037000D01*
X132730500Y-110887000D02*
X132730500Y-110887000D01*
X132730500Y-110887000D02*
G75*
G03*
X131030500Y-110887000I-850000J0D01*
G01*
X131030500Y-110887000D02*
X131030500Y-110887000D01*
X131030500Y-110887000D02*
G75*
G03*
X132730500Y-110887000I850000J0D01*
G01*
X135270500Y-108347000D02*
X135270500Y-108347000D01*
X135270500Y-108347000D02*
G75*
G03*
X133570500Y-108347000I-850000J0D01*
G01*
X133570500Y-108347000D02*
X133570500Y-108347000D01*
X133570500Y-108347000D02*
G75*
G03*
X135270500Y-108347000I850000J0D01*
G01*
X132730500Y-108347000D02*
X132730500Y-108347000D01*
X132730500Y-108347000D02*
G75*
G03*
X131030500Y-108347000I-850000J0D01*
G01*
X131030500Y-108347000D02*
X131030500Y-108347000D01*
X131030500Y-108347000D02*
G75*
G03*
X132730500Y-108347000I850000J0D01*
G01*
%TD*%
%TO.C,*%
X120048000Y-87010000D02*
G75*
G03*
X120048000Y-87010000I-1600000J0D01*
G01*
%TD*%
%TO.C,J6*%
X181237000Y-100400000D02*
X181237000Y-102100000D01*
X182937000Y-102100000D01*
X182937000Y-100400000D01*
X181237000Y-100400000D01*
X182087000Y-99560000D02*
X182087000Y-99560000D01*
X182087000Y-99560000D02*
G75*
G03*
X182087000Y-97860000I0J850000D01*
G01*
X182087000Y-97860000D02*
X182087000Y-97860000D01*
X182087000Y-97860000D02*
G75*
G03*
X182087000Y-99560000I0J-850000D01*
G01*
%TD*%
%TO.C,*%
X188048000Y-116510000D02*
G75*
G03*
X188048000Y-116510000I-1600000J0D01*
G01*
%TD*%
M02*
