%TF.GenerationSoftware,KiCad,Pcbnew,(7.0.0)*%
%TF.CreationDate,2023-08-31T15:59:46+04:00*%
%TF.ProjectId,RD53B_Quad_ZIF_to_ERF8_Data_Adapter,52443533-425f-4517-9561-645f5a49465f,V0*%
%TF.SameCoordinates,Original*%
%TF.FileFunction,Copper,L4,Bot*%
%TF.FilePolarity,Positive*%
%FSLAX46Y46*%
G04 Gerber Fmt 4.6, Leading zero omitted, Abs format (unit mm)*
G04 Created by KiCad (PCBNEW (7.0.0)) date 2023-08-31 15:59:46*
%MOMM*%
%LPD*%
G01*
G04 APERTURE LIST*
%TA.AperFunction,ComponentPad*%
%ADD10R,1.700000X1.700000*%
%TD*%
%TA.AperFunction,ComponentPad*%
%ADD11O,1.700000X1.700000*%
%TD*%
%TA.AperFunction,SMDPad,CuDef*%
%ADD12R,0.500000X1.480000*%
%TD*%
%TA.AperFunction,SMDPad,CuDef*%
%ADD13R,1.500000X2.000000*%
%TD*%
%TA.AperFunction,ViaPad*%
%ADD14C,0.500000*%
%TD*%
%TA.AperFunction,Conductor*%
%ADD15C,0.300000*%
%TD*%
G04 APERTURE END LIST*
D10*
%TO.P,J2,1,Pin_1*%
%TO.N,/LP_Enable_Module*%
X134420499Y-104471999D03*
D11*
%TO.P,J2,2,Pin_2*%
%TO.N,/FGND*%
X131880499Y-104471999D03*
%TD*%
D12*
%TO.P,J5,02,02*%
%TO.N,unconnected-(J5-Pad02)*%
X132820499Y-86069999D03*
%TO.P,J5,04,04*%
%TO.N,GND*%
X133620499Y-86069999D03*
%TO.P,J5,06,06*%
%TO.N,unconnected-(J5-Pad06)*%
X134420499Y-86069999D03*
%TO.P,J5,08,08*%
%TO.N,unconnected-(J5-Pad08)*%
X135220499Y-86069999D03*
%TO.P,J5,10,10*%
%TO.N,GND*%
X136020499Y-86069999D03*
%TO.P,J5,12,12*%
%TO.N,unconnected-(J5-Pad12)*%
X136820499Y-86069999D03*
%TO.P,J5,14,14*%
%TO.N,unconnected-(J5-Pad14)*%
X137620499Y-86069999D03*
%TO.P,J5,16,16*%
%TO.N,GND*%
X138420499Y-86069999D03*
%TO.P,J5,18,18*%
%TO.N,unconnected-(J5-Pad18)*%
X139220499Y-86069999D03*
%TO.P,J5,20,20*%
%TO.N,unconnected-(J5-Pad20)*%
X140020499Y-86069999D03*
%TO.P,J5,22,22*%
%TO.N,GND*%
X140820499Y-86069999D03*
%TO.P,J5,24,24*%
%TO.N,unconnected-(J5-Pad24)*%
X141620499Y-86069999D03*
%TO.P,J5,26,26*%
%TO.N,unconnected-(J5-Pad26)*%
X142420499Y-86069999D03*
%TO.P,J5,28,28*%
%TO.N,GND*%
X143220499Y-86069999D03*
%TO.P,J5,30,30*%
%TO.N,unconnected-(J5-Pad30)*%
X144020499Y-86069999D03*
%TO.P,J5,32,32*%
%TO.N,unconnected-(J5-Pad32)*%
X144820499Y-86069999D03*
%TO.P,J5,34,34*%
%TO.N,GND*%
X145620499Y-86069999D03*
%TO.P,J5,36,36*%
%TO.N,unconnected-(J5-Pad36)*%
X146420499Y-86069999D03*
%TO.P,J5,38,38*%
%TO.N,unconnected-(J5-Pad38)*%
X147220499Y-86069999D03*
%TO.P,J5,40,40*%
%TO.N,GND*%
X148020499Y-86069999D03*
%TO.P,J5,42,42*%
%TO.N,unconnected-(J5-Pad42)*%
X148820499Y-86069999D03*
%TO.P,J5,44,44*%
%TO.N,unconnected-(J5-Pad44)*%
X149620499Y-86069999D03*
%TO.P,J5,46,46*%
%TO.N,GND*%
X150420499Y-86069999D03*
%TO.P,J5,48,48*%
%TO.N,unconnected-(J5-Pad48)*%
X151220499Y-86069999D03*
%TO.P,J5,50,50*%
%TO.N,unconnected-(J5-Pad50)*%
X152020499Y-86069999D03*
%TO.P,J5,52,52*%
%TO.N,GND*%
X152820499Y-86069999D03*
%TO.P,J5,54,54*%
%TO.N,unconnected-(J5-Pad54)*%
X153620499Y-86069999D03*
%TO.P,J5,56,56*%
%TO.N,unconnected-(J5-Pad56)*%
X154420499Y-86069999D03*
%TO.P,J5,58,58*%
%TO.N,GND*%
X155220499Y-86069999D03*
%TO.P,J5,60,60*%
%TO.N,unconnected-(J5-Pad60)*%
X156020499Y-86069999D03*
%TO.P,J5,62,62*%
%TO.N,unconnected-(J5-Pad62)*%
X156820499Y-86069999D03*
%TO.P,J5,64,64*%
%TO.N,GND*%
X157620499Y-86069999D03*
%TO.P,J5,66,66*%
%TO.N,unconnected-(J5-Pad66)*%
X158420499Y-86069999D03*
%TO.P,J5,68,68*%
%TO.N,unconnected-(J5-Pad68)*%
X159220499Y-86069999D03*
%TO.P,J5,70,70*%
%TO.N,GND*%
X160020499Y-86069999D03*
%TO.P,J5,72,72*%
%TO.N,unconnected-(J5-Pad72)*%
X160820499Y-86069999D03*
%TO.P,J5,74,74*%
%TO.N,unconnected-(J5-Pad74)*%
X161620499Y-86069999D03*
%TO.P,J5,76,76*%
%TO.N,GND*%
X162420499Y-86069999D03*
%TO.P,J5,78,78*%
%TO.N,unconnected-(J5-Pad78)*%
X163220499Y-86069999D03*
%TO.P,J5,80,80*%
%TO.N,unconnected-(J5-Pad80)*%
X164020499Y-86069999D03*
%TO.P,J5,82,82*%
%TO.N,GND*%
X164820499Y-86069999D03*
%TO.P,J5,84,84*%
%TO.N,unconnected-(J5-Pad84)*%
X165620499Y-86069999D03*
%TO.P,J5,86,86*%
%TO.N,unconnected-(J5-Pad86)*%
X166420499Y-86069999D03*
%TO.P,J5,88,88*%
%TO.N,GND*%
X167220499Y-86069999D03*
%TO.P,J5,90,90*%
%TO.N,unconnected-(J5-Pad90)*%
X168020499Y-86069999D03*
%TO.P,J5,92,92*%
%TO.N,unconnected-(J5-Pad92)*%
X168820499Y-86069999D03*
%TO.P,J5,94,94*%
%TO.N,GND*%
X169620499Y-86069999D03*
%TO.P,J5,96,96*%
%TO.N,unconnected-(J5-Pad96)*%
X170420499Y-86069999D03*
%TO.P,J5,98,98*%
%TO.N,unconnected-(J5-Pad98)*%
X171220499Y-86069999D03*
%TO.P,J5,100,100*%
%TO.N,GND*%
X172020499Y-86069999D03*
D13*
%TO.P,J5,S2,S2*%
X127920499Y-86209999D03*
%TO.P,J5,S4,S4*%
X176920499Y-86209999D03*
%TD*%
D10*
%TO.P,J4,1,Pin_1*%
%TO.N,/MUX_Chip1*%
X170420499Y-102799999D03*
D11*
%TO.P,J4,2,Pin_2*%
%TO.N,/GND_Module*%
X172960499Y-102799999D03*
%TO.P,J4,3,Pin_3*%
%TO.N,/MUX_Chip2*%
X170420499Y-105339999D03*
%TO.P,J4,4,Pin_4*%
%TO.N,/GND_Module*%
X172960499Y-105339999D03*
%TO.P,J4,5,Pin_5*%
%TO.N,/MUX_Chip3*%
X170420499Y-107879999D03*
%TO.P,J4,6,Pin_6*%
%TO.N,/GND_Module*%
X172960499Y-107879999D03*
%TO.P,J4,7,Pin_7*%
%TO.N,/MUX_Chip4*%
X170420499Y-110419999D03*
%TO.P,J4,8,Pin_8*%
%TO.N,/GND_Module*%
X172960499Y-110419999D03*
%TD*%
D10*
%TO.P,J3,1,Pin_1*%
%TO.N,/CHIP_ID2*%
X134420499Y-110886999D03*
D11*
%TO.P,J3,2,Pin_2*%
%TO.N,/GND_Module*%
X131880499Y-110886999D03*
%TO.P,J3,3,Pin_3*%
%TO.N,/CHIP_ID3*%
X134420499Y-108346999D03*
%TO.P,J3,4,Pin_4*%
%TO.N,/GND_Module*%
X131880499Y-108346999D03*
%TD*%
D10*
%TO.P,J6,1,Pin_1*%
%TO.N,/FGND*%
X182086999Y-101249999D03*
D11*
%TO.P,J6,2,Pin_2*%
%TO.N,GND*%
X182086999Y-98709999D03*
%TD*%
D14*
%TO.N,/LP_Enable_Module*%
X152400000Y-108800000D03*
%TO.N,/CHIP_ID2*%
X151472000Y-105670000D03*
%TO.N,/CHIP_ID3*%
X151697000Y-108800000D03*
%TO.N,/MUX_Chip1*%
X152420500Y-104200000D03*
%TO.N,/MUX_Chip3*%
X152720500Y-107400000D03*
%TO.N,/GND_Module*%
X151215000Y-104200000D03*
%TO.N,/MUX_Chip2*%
X146720500Y-107400000D03*
%TO.N,GND*%
X152820500Y-84730000D03*
X140820500Y-84730000D03*
X188448000Y-94330000D03*
X178790000Y-97966000D03*
X157620500Y-84730000D03*
X133620500Y-84730000D03*
X172020500Y-84730000D03*
X150420500Y-84730000D03*
X175650500Y-86210000D03*
X188448000Y-98330000D03*
X188448000Y-90330000D03*
X180448000Y-90330000D03*
X162420500Y-84730000D03*
X160020500Y-84730000D03*
X180448000Y-86210000D03*
X185448000Y-98330000D03*
X148020500Y-84730000D03*
X143220500Y-84730000D03*
X136020500Y-84730000D03*
X138420500Y-84730000D03*
X127920500Y-87810000D03*
X180448000Y-98330000D03*
X175448000Y-90330000D03*
X176920000Y-87810000D03*
X145620500Y-84730000D03*
X180448000Y-94330000D03*
X169620500Y-84730000D03*
X126650500Y-86210000D03*
X185448000Y-94330000D03*
X178190500Y-86210000D03*
X185448000Y-90330000D03*
X155220500Y-84730000D03*
X167220500Y-84730000D03*
X164820500Y-84730000D03*
%TO.N,/FGND*%
X125448000Y-110330000D03*
X170448000Y-118330000D03*
X160448000Y-118330000D03*
X130448000Y-114330000D03*
X130448000Y-102330000D03*
X165448000Y-94330000D03*
X165448000Y-90330000D03*
X185448000Y-118330000D03*
X155448000Y-90330000D03*
X116448000Y-94330000D03*
X130448000Y-106330000D03*
X175448000Y-102330000D03*
X150448000Y-118330000D03*
X156134000Y-108800000D03*
X125448000Y-94330000D03*
X116448000Y-106330000D03*
X160448000Y-98330000D03*
X145448000Y-118330000D03*
X120448000Y-98330000D03*
X188448000Y-102330000D03*
X116448000Y-90330000D03*
X185448000Y-106330000D03*
X145448000Y-114330000D03*
X180448000Y-118330000D03*
X116448000Y-102330000D03*
X178790000Y-101919000D03*
X125448000Y-106330000D03*
X140448000Y-98330000D03*
X120448000Y-102330000D03*
X175448000Y-114330000D03*
X188448000Y-106330000D03*
X135448000Y-98330000D03*
X120448000Y-90330000D03*
X120448000Y-94330000D03*
X140448000Y-102330000D03*
X180448000Y-114330000D03*
X125448000Y-90330000D03*
X120448000Y-110330000D03*
X125448000Y-98330000D03*
X175448000Y-98330000D03*
X180448000Y-102330000D03*
X125448000Y-118330000D03*
X154520500Y-108800000D03*
X125448000Y-114330000D03*
X160448000Y-94330000D03*
X135448000Y-114330000D03*
X170448000Y-90330000D03*
X150448000Y-114330000D03*
X185448000Y-114330000D03*
X130448000Y-118330000D03*
X120448000Y-106330000D03*
X155448000Y-114330000D03*
X180448000Y-106330000D03*
X149420500Y-104200000D03*
X125448000Y-86210000D03*
X165448000Y-98330000D03*
X165448000Y-118330000D03*
X135448000Y-118330000D03*
X116448000Y-114330000D03*
X150320500Y-108800000D03*
X175448000Y-94330000D03*
X175448000Y-106330000D03*
X188448000Y-114330000D03*
X155448000Y-118330000D03*
X155448000Y-94330000D03*
X120448000Y-118330000D03*
X120448000Y-114330000D03*
X160448000Y-114330000D03*
X150448000Y-90330000D03*
X165448000Y-114330000D03*
X170448000Y-114330000D03*
X125448000Y-102330000D03*
X155274000Y-104200000D03*
X130448000Y-98330000D03*
X185448000Y-102330000D03*
X135448000Y-102330000D03*
X160448000Y-90330000D03*
X175448000Y-110090000D03*
X130448000Y-90330000D03*
X188448000Y-110090000D03*
X140448000Y-110330000D03*
X175448000Y-118330000D03*
X140448000Y-118330000D03*
X130448000Y-94330000D03*
X170448000Y-94330000D03*
X170448000Y-98330000D03*
X140448000Y-114330000D03*
X116448000Y-110330000D03*
X180448000Y-110090000D03*
X185448000Y-110090000D03*
X116448000Y-98330000D03*
%TD*%
D15*
%TO.N,/GND_Module*%
X154373000Y-101042000D02*
X171692000Y-101042000D01*
X151215000Y-104200000D02*
X154373000Y-101042000D01*
%TO.N,/LP_Enable_Module*%
X130369000Y-111656000D02*
X131944000Y-113231000D01*
X152400000Y-109958000D02*
X152400000Y-108800000D01*
X134420500Y-104472000D02*
X133964000Y-104472000D01*
X149127000Y-113231000D02*
X152400000Y-109958000D01*
X130369000Y-108067000D02*
X130369000Y-111656000D01*
X133964000Y-104472000D02*
X130369000Y-108067000D01*
X131944000Y-113231000D02*
X149127000Y-113231000D01*
%TO.N,/CHIP_ID2*%
X142259000Y-110887000D02*
X134420500Y-110887000D01*
X150658000Y-106484000D02*
X146662000Y-106484000D01*
X151472000Y-105670000D02*
X150658000Y-106484000D01*
X146662000Y-106484000D02*
X142259000Y-110887000D01*
%TO.N,/CHIP_ID3*%
X151697000Y-109602000D02*
X151697000Y-108800000D01*
X133067000Y-111887000D02*
X133673000Y-112493000D01*
X133067000Y-109700500D02*
X133067000Y-111887000D01*
X148806000Y-112493000D02*
X151697000Y-109602000D01*
X134420500Y-108347000D02*
X133067000Y-109700500D01*
X133673000Y-112493000D02*
X148806000Y-112493000D01*
%TO.N,/MUX_Chip1*%
X153812500Y-102808000D02*
X170412500Y-102808000D01*
X170412500Y-102808000D02*
X170420500Y-102800000D01*
X152420500Y-104200000D02*
X153812500Y-102808000D01*
%TO.N,/MUX_Chip3*%
X170420500Y-107880000D02*
X153200500Y-107880000D01*
X152720500Y-107400000D02*
X153200500Y-107880000D01*
%TO.N,/GND_Module*%
X131880500Y-108347000D02*
X131880500Y-110887000D01*
X172960500Y-102310500D02*
X172960500Y-102800000D01*
X172960500Y-102800000D02*
X172960500Y-110420000D01*
X171692000Y-101042000D02*
X172960500Y-102310500D01*
X134311500Y-105916000D02*
X149499000Y-105916000D01*
X149499000Y-105916000D02*
X151215000Y-104200000D01*
X131880500Y-108347000D02*
X134311500Y-105916000D01*
%TO.N,/MUX_Chip2*%
X147036500Y-107084000D02*
X146720500Y-107400000D01*
X152718000Y-105340000D02*
X150974000Y-107084000D01*
X170420500Y-105340000D02*
X152718000Y-105340000D01*
X150974000Y-107084000D02*
X147036500Y-107084000D01*
%TD*%
%TA.AperFunction,Conductor*%
%TO.N,GND*%
G36*
X128937000Y-84227381D02*
G01*
X128983119Y-84273500D01*
X129000000Y-84336500D01*
X129000000Y-87970118D01*
X129000000Y-88010000D01*
X129000000Y-88113139D01*
X129000773Y-88118022D01*
X129000774Y-88118029D01*
X129031494Y-88311987D01*
X129031495Y-88311994D01*
X129032269Y-88316876D01*
X129033798Y-88321584D01*
X129033799Y-88321585D01*
X129094480Y-88508344D01*
X129094483Y-88508351D01*
X129096012Y-88513057D01*
X129189660Y-88696852D01*
X129310907Y-88863733D01*
X129456767Y-89009593D01*
X129623648Y-89130840D01*
X129807443Y-89224488D01*
X130003624Y-89288231D01*
X130207361Y-89320500D01*
X130270618Y-89320500D01*
X130310500Y-89320500D01*
X130350382Y-89320500D01*
X130408686Y-89320500D01*
X130413639Y-89320500D01*
X130617376Y-89288231D01*
X130813557Y-89224488D01*
X130997352Y-89130840D01*
X131164233Y-89009593D01*
X131310093Y-88863733D01*
X131431340Y-88696852D01*
X131524988Y-88513057D01*
X131588731Y-88316876D01*
X131621000Y-88113139D01*
X131621000Y-88010000D01*
X131621000Y-87970118D01*
X131621000Y-84336500D01*
X131637881Y-84273500D01*
X131684000Y-84227381D01*
X131747000Y-84210500D01*
X178397910Y-84210500D01*
X178443090Y-84210500D01*
X189121500Y-84210500D01*
X189184500Y-84227381D01*
X189230619Y-84273500D01*
X189247500Y-84336500D01*
X189247500Y-99487000D01*
X189230619Y-99550000D01*
X189184500Y-99596119D01*
X189121500Y-99613000D01*
X178003000Y-99613000D01*
X177940000Y-99596119D01*
X177893881Y-99550000D01*
X177877000Y-99487000D01*
X177877000Y-91157590D01*
X177877000Y-91141000D01*
X177860410Y-91141000D01*
X171905000Y-91141000D01*
X171842000Y-91124119D01*
X171795881Y-91078000D01*
X171779000Y-91015000D01*
X171779000Y-86944675D01*
X184743748Y-86944675D01*
X184753749Y-87205593D01*
X184754667Y-87210328D01*
X184754668Y-87210334D01*
X184802541Y-87457183D01*
X184802544Y-87457194D01*
X184803462Y-87461927D01*
X184805094Y-87466471D01*
X184890088Y-87703123D01*
X184890091Y-87703130D01*
X184891721Y-87707668D01*
X184894027Y-87711909D01*
X184894029Y-87711913D01*
X185014146Y-87932805D01*
X185014151Y-87932813D01*
X185016459Y-87937057D01*
X185019390Y-87940903D01*
X185019392Y-87940905D01*
X185146904Y-88108186D01*
X185174750Y-88144716D01*
X185362886Y-88325778D01*
X185366837Y-88328557D01*
X185572506Y-88473221D01*
X185572509Y-88473222D01*
X185576456Y-88475999D01*
X185810453Y-88591859D01*
X186059395Y-88670641D01*
X186317445Y-88710500D01*
X186510771Y-88710500D01*
X186513177Y-88710500D01*
X186708344Y-88695516D01*
X186962586Y-88636021D01*
X187204766Y-88538414D01*
X187429208Y-88404982D01*
X187630652Y-88238852D01*
X187804375Y-88043920D01*
X187946306Y-87824753D01*
X188053118Y-87586489D01*
X188122307Y-87334713D01*
X188152252Y-87075325D01*
X188142251Y-86814407D01*
X188108006Y-86637833D01*
X188093458Y-86562816D01*
X188093457Y-86562814D01*
X188092538Y-86558073D01*
X188004279Y-86312332D01*
X187879541Y-86082943D01*
X187721250Y-85875284D01*
X187533114Y-85694222D01*
X187424870Y-85618085D01*
X187323493Y-85546778D01*
X187323487Y-85546774D01*
X187319544Y-85544001D01*
X187315224Y-85541862D01*
X187315219Y-85541859D01*
X187089875Y-85430284D01*
X187085547Y-85428141D01*
X187080940Y-85426683D01*
X186841207Y-85350815D01*
X186841202Y-85350813D01*
X186836605Y-85349359D01*
X186831841Y-85348623D01*
X186831832Y-85348621D01*
X186583329Y-85310237D01*
X186583323Y-85310236D01*
X186578555Y-85309500D01*
X186382823Y-85309500D01*
X186380432Y-85309683D01*
X186380420Y-85309684D01*
X186192472Y-85324114D01*
X186192468Y-85324114D01*
X186187656Y-85324484D01*
X186182964Y-85325581D01*
X186182957Y-85325583D01*
X185938109Y-85382880D01*
X185938105Y-85382881D01*
X185933414Y-85383979D01*
X185928945Y-85385780D01*
X185928936Y-85385783D01*
X185695718Y-85479778D01*
X185695709Y-85479782D01*
X185691234Y-85481586D01*
X185687080Y-85484055D01*
X185687079Y-85484056D01*
X185470939Y-85612552D01*
X185470933Y-85612555D01*
X185466792Y-85615018D01*
X185463079Y-85618079D01*
X185463072Y-85618085D01*
X185269067Y-85778080D01*
X185269060Y-85778086D01*
X185265348Y-85781148D01*
X185262143Y-85784743D01*
X185262138Y-85784749D01*
X185094839Y-85972473D01*
X185094835Y-85972477D01*
X185091625Y-85976080D01*
X185089003Y-85980128D01*
X185088996Y-85980138D01*
X184952318Y-86191193D01*
X184952310Y-86191205D01*
X184949694Y-86195247D01*
X184947722Y-86199644D01*
X184947718Y-86199653D01*
X184844860Y-86429097D01*
X184844856Y-86429105D01*
X184842882Y-86433511D01*
X184841602Y-86438166D01*
X184841601Y-86438171D01*
X184774971Y-86680633D01*
X184774968Y-86680644D01*
X184773693Y-86685287D01*
X184773140Y-86690071D01*
X184773139Y-86690080D01*
X184748012Y-86907740D01*
X184743748Y-86944675D01*
X171779000Y-86944675D01*
X171779000Y-85553590D01*
X171779000Y-85537000D01*
X171772929Y-85537000D01*
X171757905Y-85521976D01*
X171730591Y-85481099D01*
X171721000Y-85432881D01*
X171721000Y-85311513D01*
X171721000Y-85305326D01*
X171706466Y-85232260D01*
X171651101Y-85149399D01*
X171640785Y-85142506D01*
X171578557Y-85100927D01*
X171578555Y-85100926D01*
X171568240Y-85094034D01*
X171555592Y-85091518D01*
X171501241Y-85080706D01*
X171501232Y-85080705D01*
X171495174Y-85079500D01*
X170945826Y-85079500D01*
X170939768Y-85080704D01*
X170939758Y-85080706D01*
X170884930Y-85091613D01*
X170884929Y-85091613D01*
X170872760Y-85094034D01*
X170865321Y-85099004D01*
X170820500Y-85107919D01*
X170775678Y-85099004D01*
X170768240Y-85094034D01*
X170755592Y-85091518D01*
X170701241Y-85080706D01*
X170701232Y-85080705D01*
X170695174Y-85079500D01*
X170145826Y-85079500D01*
X170139768Y-85080704D01*
X170139758Y-85080706D01*
X170084930Y-85091613D01*
X170084929Y-85091613D01*
X170072760Y-85094034D01*
X170062446Y-85100925D01*
X170062442Y-85100927D01*
X170000214Y-85142506D01*
X170000211Y-85142508D01*
X169989899Y-85149399D01*
X169983008Y-85159711D01*
X169983006Y-85159714D01*
X169941427Y-85221942D01*
X169941425Y-85221946D01*
X169934534Y-85232260D01*
X169932113Y-85244429D01*
X169932113Y-85244430D01*
X169921206Y-85299258D01*
X169921204Y-85299268D01*
X169920000Y-85305326D01*
X169920000Y-85311513D01*
X169920000Y-85411000D01*
X169903119Y-85474000D01*
X169857000Y-85520119D01*
X169794000Y-85537000D01*
X169447000Y-85537000D01*
X169384000Y-85520119D01*
X169337881Y-85474000D01*
X169321000Y-85411000D01*
X169321000Y-85311513D01*
X169321000Y-85305326D01*
X169306466Y-85232260D01*
X169251101Y-85149399D01*
X169240785Y-85142506D01*
X169178557Y-85100927D01*
X169178555Y-85100926D01*
X169168240Y-85094034D01*
X169155592Y-85091518D01*
X169101241Y-85080706D01*
X169101232Y-85080705D01*
X169095174Y-85079500D01*
X168545826Y-85079500D01*
X168539768Y-85080704D01*
X168539758Y-85080706D01*
X168484930Y-85091613D01*
X168484929Y-85091613D01*
X168472760Y-85094034D01*
X168465321Y-85099004D01*
X168420500Y-85107919D01*
X168375678Y-85099004D01*
X168368240Y-85094034D01*
X168355592Y-85091518D01*
X168301241Y-85080706D01*
X168301232Y-85080705D01*
X168295174Y-85079500D01*
X167745826Y-85079500D01*
X167739768Y-85080704D01*
X167739758Y-85080706D01*
X167684930Y-85091613D01*
X167684929Y-85091613D01*
X167672760Y-85094034D01*
X167662446Y-85100925D01*
X167662442Y-85100927D01*
X167600214Y-85142506D01*
X167600211Y-85142508D01*
X167589899Y-85149399D01*
X167583008Y-85159711D01*
X167583006Y-85159714D01*
X167541427Y-85221942D01*
X167541425Y-85221946D01*
X167534534Y-85232260D01*
X167532113Y-85244429D01*
X167532113Y-85244430D01*
X167521206Y-85299258D01*
X167521204Y-85299268D01*
X167520000Y-85305326D01*
X167520000Y-85311513D01*
X167520000Y-85411000D01*
X167503119Y-85474000D01*
X167457000Y-85520119D01*
X167394000Y-85537000D01*
X167047000Y-85537000D01*
X166984000Y-85520119D01*
X166937881Y-85474000D01*
X166921000Y-85411000D01*
X166921000Y-85311513D01*
X166921000Y-85305326D01*
X166906466Y-85232260D01*
X166851101Y-85149399D01*
X166840785Y-85142506D01*
X166778557Y-85100927D01*
X166778555Y-85100926D01*
X166768240Y-85094034D01*
X166755592Y-85091518D01*
X166701241Y-85080706D01*
X166701232Y-85080705D01*
X166695174Y-85079500D01*
X166145826Y-85079500D01*
X166139768Y-85080704D01*
X166139758Y-85080706D01*
X166084930Y-85091613D01*
X166084929Y-85091613D01*
X166072760Y-85094034D01*
X166065321Y-85099004D01*
X166020500Y-85107919D01*
X165975678Y-85099004D01*
X165968240Y-85094034D01*
X165955592Y-85091518D01*
X165901241Y-85080706D01*
X165901232Y-85080705D01*
X165895174Y-85079500D01*
X165345826Y-85079500D01*
X165339768Y-85080704D01*
X165339758Y-85080706D01*
X165284930Y-85091613D01*
X165284929Y-85091613D01*
X165272760Y-85094034D01*
X165262446Y-85100925D01*
X165262442Y-85100927D01*
X165200214Y-85142506D01*
X165200211Y-85142508D01*
X165189899Y-85149399D01*
X165183008Y-85159711D01*
X165183006Y-85159714D01*
X165141427Y-85221942D01*
X165141425Y-85221946D01*
X165134534Y-85232260D01*
X165132113Y-85244429D01*
X165132113Y-85244430D01*
X165121206Y-85299258D01*
X165121204Y-85299268D01*
X165120000Y-85305326D01*
X165120000Y-85311513D01*
X165120000Y-85411000D01*
X165103119Y-85474000D01*
X165057000Y-85520119D01*
X164994000Y-85537000D01*
X164647000Y-85537000D01*
X164584000Y-85520119D01*
X164537881Y-85474000D01*
X164521000Y-85411000D01*
X164521000Y-85311513D01*
X164521000Y-85305326D01*
X164506466Y-85232260D01*
X164451101Y-85149399D01*
X164440785Y-85142506D01*
X164378557Y-85100927D01*
X164378555Y-85100926D01*
X164368240Y-85094034D01*
X164355592Y-85091518D01*
X164301241Y-85080706D01*
X164301232Y-85080705D01*
X164295174Y-85079500D01*
X163745826Y-85079500D01*
X163739768Y-85080704D01*
X163739758Y-85080706D01*
X163684930Y-85091613D01*
X163684929Y-85091613D01*
X163672760Y-85094034D01*
X163665321Y-85099004D01*
X163620500Y-85107919D01*
X163575678Y-85099004D01*
X163568240Y-85094034D01*
X163555592Y-85091518D01*
X163501241Y-85080706D01*
X163501232Y-85080705D01*
X163495174Y-85079500D01*
X162945826Y-85079500D01*
X162939768Y-85080704D01*
X162939758Y-85080706D01*
X162884930Y-85091613D01*
X162884929Y-85091613D01*
X162872760Y-85094034D01*
X162862446Y-85100925D01*
X162862442Y-85100927D01*
X162800214Y-85142506D01*
X162800211Y-85142508D01*
X162789899Y-85149399D01*
X162783008Y-85159711D01*
X162783006Y-85159714D01*
X162741427Y-85221942D01*
X162741425Y-85221946D01*
X162734534Y-85232260D01*
X162732113Y-85244429D01*
X162732113Y-85244430D01*
X162721206Y-85299258D01*
X162721204Y-85299268D01*
X162720000Y-85305326D01*
X162720000Y-85311513D01*
X162720000Y-85411000D01*
X162703119Y-85474000D01*
X162657000Y-85520119D01*
X162594000Y-85537000D01*
X162247000Y-85537000D01*
X162184000Y-85520119D01*
X162137881Y-85474000D01*
X162121000Y-85411000D01*
X162121000Y-85311513D01*
X162121000Y-85305326D01*
X162106466Y-85232260D01*
X162051101Y-85149399D01*
X162040785Y-85142506D01*
X161978557Y-85100927D01*
X161978555Y-85100926D01*
X161968240Y-85094034D01*
X161955592Y-85091518D01*
X161901241Y-85080706D01*
X161901232Y-85080705D01*
X161895174Y-85079500D01*
X161345826Y-85079500D01*
X161339768Y-85080704D01*
X161339758Y-85080706D01*
X161284930Y-85091613D01*
X161284929Y-85091613D01*
X161272760Y-85094034D01*
X161265321Y-85099004D01*
X161220500Y-85107919D01*
X161175678Y-85099004D01*
X161168240Y-85094034D01*
X161155592Y-85091518D01*
X161101241Y-85080706D01*
X161101232Y-85080705D01*
X161095174Y-85079500D01*
X160545826Y-85079500D01*
X160539768Y-85080704D01*
X160539758Y-85080706D01*
X160484930Y-85091613D01*
X160484929Y-85091613D01*
X160472760Y-85094034D01*
X160462446Y-85100925D01*
X160462442Y-85100927D01*
X160400214Y-85142506D01*
X160400211Y-85142508D01*
X160389899Y-85149399D01*
X160383008Y-85159711D01*
X160383006Y-85159714D01*
X160341427Y-85221942D01*
X160341425Y-85221946D01*
X160334534Y-85232260D01*
X160332113Y-85244429D01*
X160332113Y-85244430D01*
X160321206Y-85299258D01*
X160321204Y-85299268D01*
X160320000Y-85305326D01*
X160320000Y-85311513D01*
X160320000Y-85411000D01*
X160303119Y-85474000D01*
X160257000Y-85520119D01*
X160194000Y-85537000D01*
X159847000Y-85537000D01*
X159784000Y-85520119D01*
X159737881Y-85474000D01*
X159721000Y-85411000D01*
X159721000Y-85311513D01*
X159721000Y-85305326D01*
X159706466Y-85232260D01*
X159651101Y-85149399D01*
X159640785Y-85142506D01*
X159578557Y-85100927D01*
X159578555Y-85100926D01*
X159568240Y-85094034D01*
X159555592Y-85091518D01*
X159501241Y-85080706D01*
X159501232Y-85080705D01*
X159495174Y-85079500D01*
X158945826Y-85079500D01*
X158939768Y-85080704D01*
X158939758Y-85080706D01*
X158884930Y-85091613D01*
X158884929Y-85091613D01*
X158872760Y-85094034D01*
X158865321Y-85099004D01*
X158820500Y-85107919D01*
X158775678Y-85099004D01*
X158768240Y-85094034D01*
X158755592Y-85091518D01*
X158701241Y-85080706D01*
X158701232Y-85080705D01*
X158695174Y-85079500D01*
X158145826Y-85079500D01*
X158139768Y-85080704D01*
X158139758Y-85080706D01*
X158084930Y-85091613D01*
X158084929Y-85091613D01*
X158072760Y-85094034D01*
X158062446Y-85100925D01*
X158062442Y-85100927D01*
X158000214Y-85142506D01*
X158000211Y-85142508D01*
X157989899Y-85149399D01*
X157983008Y-85159711D01*
X157983006Y-85159714D01*
X157941427Y-85221942D01*
X157941425Y-85221946D01*
X157934534Y-85232260D01*
X157932113Y-85244429D01*
X157932113Y-85244430D01*
X157921206Y-85299258D01*
X157921204Y-85299268D01*
X157920000Y-85305326D01*
X157920000Y-85311513D01*
X157920000Y-85411000D01*
X157903119Y-85474000D01*
X157857000Y-85520119D01*
X157794000Y-85537000D01*
X157447000Y-85537000D01*
X157384000Y-85520119D01*
X157337881Y-85474000D01*
X157321000Y-85411000D01*
X157321000Y-85311513D01*
X157321000Y-85305326D01*
X157306466Y-85232260D01*
X157251101Y-85149399D01*
X157240785Y-85142506D01*
X157178557Y-85100927D01*
X157178555Y-85100926D01*
X157168240Y-85094034D01*
X157155592Y-85091518D01*
X157101241Y-85080706D01*
X157101232Y-85080705D01*
X157095174Y-85079500D01*
X156545826Y-85079500D01*
X156539768Y-85080704D01*
X156539758Y-85080706D01*
X156484930Y-85091613D01*
X156484929Y-85091613D01*
X156472760Y-85094034D01*
X156465321Y-85099004D01*
X156420500Y-85107919D01*
X156375678Y-85099004D01*
X156368240Y-85094034D01*
X156355592Y-85091518D01*
X156301241Y-85080706D01*
X156301232Y-85080705D01*
X156295174Y-85079500D01*
X155745826Y-85079500D01*
X155739768Y-85080704D01*
X155739758Y-85080706D01*
X155684930Y-85091613D01*
X155684929Y-85091613D01*
X155672760Y-85094034D01*
X155662446Y-85100925D01*
X155662442Y-85100927D01*
X155600214Y-85142506D01*
X155600211Y-85142508D01*
X155589899Y-85149399D01*
X155583008Y-85159711D01*
X155583006Y-85159714D01*
X155541427Y-85221942D01*
X155541425Y-85221946D01*
X155534534Y-85232260D01*
X155532113Y-85244429D01*
X155532113Y-85244430D01*
X155521206Y-85299258D01*
X155521204Y-85299268D01*
X155520000Y-85305326D01*
X155520000Y-85311513D01*
X155520000Y-85411000D01*
X155503119Y-85474000D01*
X155457000Y-85520119D01*
X155394000Y-85537000D01*
X155047000Y-85537000D01*
X154984000Y-85520119D01*
X154937881Y-85474000D01*
X154921000Y-85411000D01*
X154921000Y-85311513D01*
X154921000Y-85305326D01*
X154906466Y-85232260D01*
X154851101Y-85149399D01*
X154840785Y-85142506D01*
X154778557Y-85100927D01*
X154778555Y-85100926D01*
X154768240Y-85094034D01*
X154755592Y-85091518D01*
X154701241Y-85080706D01*
X154701232Y-85080705D01*
X154695174Y-85079500D01*
X154145826Y-85079500D01*
X154139768Y-85080704D01*
X154139758Y-85080706D01*
X154084930Y-85091613D01*
X154084929Y-85091613D01*
X154072760Y-85094034D01*
X154065321Y-85099004D01*
X154020500Y-85107919D01*
X153975678Y-85099004D01*
X153968240Y-85094034D01*
X153955592Y-85091518D01*
X153901241Y-85080706D01*
X153901232Y-85080705D01*
X153895174Y-85079500D01*
X153345826Y-85079500D01*
X153339768Y-85080704D01*
X153339758Y-85080706D01*
X153284930Y-85091613D01*
X153284929Y-85091613D01*
X153272760Y-85094034D01*
X153262446Y-85100925D01*
X153262442Y-85100927D01*
X153200214Y-85142506D01*
X153200211Y-85142508D01*
X153189899Y-85149399D01*
X153183008Y-85159711D01*
X153183006Y-85159714D01*
X153141427Y-85221942D01*
X153141425Y-85221946D01*
X153134534Y-85232260D01*
X153132113Y-85244429D01*
X153132113Y-85244430D01*
X153121206Y-85299258D01*
X153121204Y-85299268D01*
X153120000Y-85305326D01*
X153120000Y-85311513D01*
X153120000Y-85411000D01*
X153103119Y-85474000D01*
X153057000Y-85520119D01*
X152994000Y-85537000D01*
X152647000Y-85537000D01*
X152584000Y-85520119D01*
X152537881Y-85474000D01*
X152521000Y-85411000D01*
X152521000Y-85311513D01*
X152521000Y-85305326D01*
X152506466Y-85232260D01*
X152451101Y-85149399D01*
X152440785Y-85142506D01*
X152378557Y-85100927D01*
X152378555Y-85100926D01*
X152368240Y-85094034D01*
X152355592Y-85091518D01*
X152301241Y-85080706D01*
X152301232Y-85080705D01*
X152295174Y-85079500D01*
X151745826Y-85079500D01*
X151739768Y-85080704D01*
X151739758Y-85080706D01*
X151684930Y-85091613D01*
X151684929Y-85091613D01*
X151672760Y-85094034D01*
X151665321Y-85099004D01*
X151620500Y-85107919D01*
X151575678Y-85099004D01*
X151568240Y-85094034D01*
X151555592Y-85091518D01*
X151501241Y-85080706D01*
X151501232Y-85080705D01*
X151495174Y-85079500D01*
X150945826Y-85079500D01*
X150939768Y-85080704D01*
X150939758Y-85080706D01*
X150884930Y-85091613D01*
X150884929Y-85091613D01*
X150872760Y-85094034D01*
X150862446Y-85100925D01*
X150862442Y-85100927D01*
X150800214Y-85142506D01*
X150800211Y-85142508D01*
X150789899Y-85149399D01*
X150783008Y-85159711D01*
X150783006Y-85159714D01*
X150741427Y-85221942D01*
X150741425Y-85221946D01*
X150734534Y-85232260D01*
X150732113Y-85244429D01*
X150732113Y-85244430D01*
X150721206Y-85299258D01*
X150721204Y-85299268D01*
X150720000Y-85305326D01*
X150720000Y-85311513D01*
X150720000Y-85411000D01*
X150703119Y-85474000D01*
X150657000Y-85520119D01*
X150594000Y-85537000D01*
X150247000Y-85537000D01*
X150184000Y-85520119D01*
X150137881Y-85474000D01*
X150121000Y-85411000D01*
X150121000Y-85311513D01*
X150121000Y-85305326D01*
X150106466Y-85232260D01*
X150051101Y-85149399D01*
X150040785Y-85142506D01*
X149978557Y-85100927D01*
X149978555Y-85100926D01*
X149968240Y-85094034D01*
X149955592Y-85091518D01*
X149901241Y-85080706D01*
X149901232Y-85080705D01*
X149895174Y-85079500D01*
X149345826Y-85079500D01*
X149339768Y-85080704D01*
X149339758Y-85080706D01*
X149284930Y-85091613D01*
X149284929Y-85091613D01*
X149272760Y-85094034D01*
X149265321Y-85099004D01*
X149220500Y-85107919D01*
X149175678Y-85099004D01*
X149168240Y-85094034D01*
X149155592Y-85091518D01*
X149101241Y-85080706D01*
X149101232Y-85080705D01*
X149095174Y-85079500D01*
X148545826Y-85079500D01*
X148539768Y-85080704D01*
X148539758Y-85080706D01*
X148484930Y-85091613D01*
X148484929Y-85091613D01*
X148472760Y-85094034D01*
X148462446Y-85100925D01*
X148462442Y-85100927D01*
X148400214Y-85142506D01*
X148400211Y-85142508D01*
X148389899Y-85149399D01*
X148383008Y-85159711D01*
X148383006Y-85159714D01*
X148341427Y-85221942D01*
X148341425Y-85221946D01*
X148334534Y-85232260D01*
X148332113Y-85244429D01*
X148332113Y-85244430D01*
X148321206Y-85299258D01*
X148321204Y-85299268D01*
X148320000Y-85305326D01*
X148320000Y-85311513D01*
X148320000Y-85411000D01*
X148303119Y-85474000D01*
X148257000Y-85520119D01*
X148194000Y-85537000D01*
X147847000Y-85537000D01*
X147784000Y-85520119D01*
X147737881Y-85474000D01*
X147721000Y-85411000D01*
X147721000Y-85311513D01*
X147721000Y-85305326D01*
X147706466Y-85232260D01*
X147651101Y-85149399D01*
X147640785Y-85142506D01*
X147578557Y-85100927D01*
X147578555Y-85100926D01*
X147568240Y-85094034D01*
X147555592Y-85091518D01*
X147501241Y-85080706D01*
X147501232Y-85080705D01*
X147495174Y-85079500D01*
X146945826Y-85079500D01*
X146939768Y-85080704D01*
X146939758Y-85080706D01*
X146884930Y-85091613D01*
X146884929Y-85091613D01*
X146872760Y-85094034D01*
X146865321Y-85099004D01*
X146820500Y-85107919D01*
X146775678Y-85099004D01*
X146768240Y-85094034D01*
X146755592Y-85091518D01*
X146701241Y-85080706D01*
X146701232Y-85080705D01*
X146695174Y-85079500D01*
X146145826Y-85079500D01*
X146139768Y-85080704D01*
X146139758Y-85080706D01*
X146084930Y-85091613D01*
X146084929Y-85091613D01*
X146072760Y-85094034D01*
X146062446Y-85100925D01*
X146062442Y-85100927D01*
X146000214Y-85142506D01*
X146000211Y-85142508D01*
X145989899Y-85149399D01*
X145983008Y-85159711D01*
X145983006Y-85159714D01*
X145941427Y-85221942D01*
X145941425Y-85221946D01*
X145934534Y-85232260D01*
X145932113Y-85244429D01*
X145932113Y-85244430D01*
X145921206Y-85299258D01*
X145921204Y-85299268D01*
X145920000Y-85305326D01*
X145920000Y-85311513D01*
X145920000Y-85411000D01*
X145903119Y-85474000D01*
X145857000Y-85520119D01*
X145794000Y-85537000D01*
X145447000Y-85537000D01*
X145384000Y-85520119D01*
X145337881Y-85474000D01*
X145321000Y-85411000D01*
X145321000Y-85311513D01*
X145321000Y-85305326D01*
X145306466Y-85232260D01*
X145251101Y-85149399D01*
X145240785Y-85142506D01*
X145178557Y-85100927D01*
X145178555Y-85100926D01*
X145168240Y-85094034D01*
X145155592Y-85091518D01*
X145101241Y-85080706D01*
X145101232Y-85080705D01*
X145095174Y-85079500D01*
X144545826Y-85079500D01*
X144539768Y-85080704D01*
X144539758Y-85080706D01*
X144484930Y-85091613D01*
X144484929Y-85091613D01*
X144472760Y-85094034D01*
X144465321Y-85099004D01*
X144420500Y-85107919D01*
X144375678Y-85099004D01*
X144368240Y-85094034D01*
X144355592Y-85091518D01*
X144301241Y-85080706D01*
X144301232Y-85080705D01*
X144295174Y-85079500D01*
X143745826Y-85079500D01*
X143739768Y-85080704D01*
X143739758Y-85080706D01*
X143684930Y-85091613D01*
X143684929Y-85091613D01*
X143672760Y-85094034D01*
X143662446Y-85100925D01*
X143662442Y-85100927D01*
X143600214Y-85142506D01*
X143600211Y-85142508D01*
X143589899Y-85149399D01*
X143583008Y-85159711D01*
X143583006Y-85159714D01*
X143541427Y-85221942D01*
X143541425Y-85221946D01*
X143534534Y-85232260D01*
X143532113Y-85244429D01*
X143532113Y-85244430D01*
X143521206Y-85299258D01*
X143521204Y-85299268D01*
X143520000Y-85305326D01*
X143520000Y-85311513D01*
X143520000Y-85411000D01*
X143503119Y-85474000D01*
X143457000Y-85520119D01*
X143394000Y-85537000D01*
X143047000Y-85537000D01*
X142984000Y-85520119D01*
X142937881Y-85474000D01*
X142921000Y-85411000D01*
X142921000Y-85311513D01*
X142921000Y-85305326D01*
X142906466Y-85232260D01*
X142851101Y-85149399D01*
X142840785Y-85142506D01*
X142778557Y-85100927D01*
X142778555Y-85100926D01*
X142768240Y-85094034D01*
X142755592Y-85091518D01*
X142701241Y-85080706D01*
X142701232Y-85080705D01*
X142695174Y-85079500D01*
X142145826Y-85079500D01*
X142139768Y-85080704D01*
X142139758Y-85080706D01*
X142084930Y-85091613D01*
X142084929Y-85091613D01*
X142072760Y-85094034D01*
X142065321Y-85099004D01*
X142020500Y-85107919D01*
X141975678Y-85099004D01*
X141968240Y-85094034D01*
X141955592Y-85091518D01*
X141901241Y-85080706D01*
X141901232Y-85080705D01*
X141895174Y-85079500D01*
X141345826Y-85079500D01*
X141339768Y-85080704D01*
X141339758Y-85080706D01*
X141284930Y-85091613D01*
X141284929Y-85091613D01*
X141272760Y-85094034D01*
X141262446Y-85100925D01*
X141262442Y-85100927D01*
X141200214Y-85142506D01*
X141200211Y-85142508D01*
X141189899Y-85149399D01*
X141183008Y-85159711D01*
X141183006Y-85159714D01*
X141141427Y-85221942D01*
X141141425Y-85221946D01*
X141134534Y-85232260D01*
X141132113Y-85244429D01*
X141132113Y-85244430D01*
X141121206Y-85299258D01*
X141121204Y-85299268D01*
X141120000Y-85305326D01*
X141120000Y-85311513D01*
X141120000Y-85411000D01*
X141103119Y-85474000D01*
X141057000Y-85520119D01*
X140994000Y-85537000D01*
X140647000Y-85537000D01*
X140584000Y-85520119D01*
X140537881Y-85474000D01*
X140521000Y-85411000D01*
X140521000Y-85311513D01*
X140521000Y-85305326D01*
X140506466Y-85232260D01*
X140451101Y-85149399D01*
X140440785Y-85142506D01*
X140378557Y-85100927D01*
X140378555Y-85100926D01*
X140368240Y-85094034D01*
X140355592Y-85091518D01*
X140301241Y-85080706D01*
X140301232Y-85080705D01*
X140295174Y-85079500D01*
X139745826Y-85079500D01*
X139739768Y-85080704D01*
X139739758Y-85080706D01*
X139684930Y-85091613D01*
X139684929Y-85091613D01*
X139672760Y-85094034D01*
X139665321Y-85099004D01*
X139620500Y-85107919D01*
X139575678Y-85099004D01*
X139568240Y-85094034D01*
X139555592Y-85091518D01*
X139501241Y-85080706D01*
X139501232Y-85080705D01*
X139495174Y-85079500D01*
X138945826Y-85079500D01*
X138939768Y-85080704D01*
X138939758Y-85080706D01*
X138884930Y-85091613D01*
X138884929Y-85091613D01*
X138872760Y-85094034D01*
X138862446Y-85100925D01*
X138862442Y-85100927D01*
X138800214Y-85142506D01*
X138800211Y-85142508D01*
X138789899Y-85149399D01*
X138783008Y-85159711D01*
X138783006Y-85159714D01*
X138741427Y-85221942D01*
X138741425Y-85221946D01*
X138734534Y-85232260D01*
X138732113Y-85244429D01*
X138732113Y-85244430D01*
X138721206Y-85299258D01*
X138721204Y-85299268D01*
X138720000Y-85305326D01*
X138720000Y-85311513D01*
X138720000Y-85411000D01*
X138703119Y-85474000D01*
X138657000Y-85520119D01*
X138594000Y-85537000D01*
X138247000Y-85537000D01*
X138184000Y-85520119D01*
X138137881Y-85474000D01*
X138121000Y-85411000D01*
X138121000Y-85311513D01*
X138121000Y-85305326D01*
X138106466Y-85232260D01*
X138051101Y-85149399D01*
X138040785Y-85142506D01*
X137978557Y-85100927D01*
X137978555Y-85100926D01*
X137968240Y-85094034D01*
X137955592Y-85091518D01*
X137901241Y-85080706D01*
X137901232Y-85080705D01*
X137895174Y-85079500D01*
X137345826Y-85079500D01*
X137339768Y-85080704D01*
X137339758Y-85080706D01*
X137284930Y-85091613D01*
X137284929Y-85091613D01*
X137272760Y-85094034D01*
X137265321Y-85099004D01*
X137220500Y-85107919D01*
X137175678Y-85099004D01*
X137168240Y-85094034D01*
X137155592Y-85091518D01*
X137101241Y-85080706D01*
X137101232Y-85080705D01*
X137095174Y-85079500D01*
X136545826Y-85079500D01*
X136539768Y-85080704D01*
X136539758Y-85080706D01*
X136484930Y-85091613D01*
X136484929Y-85091613D01*
X136472760Y-85094034D01*
X136462446Y-85100925D01*
X136462442Y-85100927D01*
X136400214Y-85142506D01*
X136400211Y-85142508D01*
X136389899Y-85149399D01*
X136383008Y-85159711D01*
X136383006Y-85159714D01*
X136341427Y-85221942D01*
X136341425Y-85221946D01*
X136334534Y-85232260D01*
X136332113Y-85244429D01*
X136332113Y-85244430D01*
X136321206Y-85299258D01*
X136321204Y-85299268D01*
X136320000Y-85305326D01*
X136320000Y-85311513D01*
X136320000Y-85411000D01*
X136303119Y-85474000D01*
X136257000Y-85520119D01*
X136194000Y-85537000D01*
X135847000Y-85537000D01*
X135784000Y-85520119D01*
X135737881Y-85474000D01*
X135721000Y-85411000D01*
X135721000Y-85311513D01*
X135721000Y-85305326D01*
X135706466Y-85232260D01*
X135651101Y-85149399D01*
X135640785Y-85142506D01*
X135578557Y-85100927D01*
X135578555Y-85100926D01*
X135568240Y-85094034D01*
X135555592Y-85091518D01*
X135501241Y-85080706D01*
X135501232Y-85080705D01*
X135495174Y-85079500D01*
X134945826Y-85079500D01*
X134939768Y-85080704D01*
X134939758Y-85080706D01*
X134884930Y-85091613D01*
X134884929Y-85091613D01*
X134872760Y-85094034D01*
X134865321Y-85099004D01*
X134820500Y-85107919D01*
X134775678Y-85099004D01*
X134768240Y-85094034D01*
X134755592Y-85091518D01*
X134701241Y-85080706D01*
X134701232Y-85080705D01*
X134695174Y-85079500D01*
X134145826Y-85079500D01*
X134139768Y-85080704D01*
X134139758Y-85080706D01*
X134084930Y-85091613D01*
X134084929Y-85091613D01*
X134072760Y-85094034D01*
X134062446Y-85100925D01*
X134062442Y-85100927D01*
X134000214Y-85142506D01*
X134000211Y-85142508D01*
X133989899Y-85149399D01*
X133983008Y-85159711D01*
X133983006Y-85159714D01*
X133941427Y-85221942D01*
X133941425Y-85221946D01*
X133934534Y-85232260D01*
X133932113Y-85244429D01*
X133932113Y-85244430D01*
X133921206Y-85299258D01*
X133921204Y-85299268D01*
X133920000Y-85305326D01*
X133920000Y-85311513D01*
X133920000Y-85411000D01*
X133903119Y-85474000D01*
X133857000Y-85520119D01*
X133794000Y-85537000D01*
X133447000Y-85537000D01*
X133384000Y-85520119D01*
X133337881Y-85474000D01*
X133321000Y-85411000D01*
X133321000Y-85311513D01*
X133321000Y-85305326D01*
X133306466Y-85232260D01*
X133251101Y-85149399D01*
X133240785Y-85142506D01*
X133178557Y-85100927D01*
X133178555Y-85100926D01*
X133168240Y-85094034D01*
X133155592Y-85091518D01*
X133101241Y-85080706D01*
X133101232Y-85080705D01*
X133095174Y-85079500D01*
X132545826Y-85079500D01*
X132539768Y-85080704D01*
X132539758Y-85080706D01*
X132484930Y-85091613D01*
X132484929Y-85091613D01*
X132472760Y-85094034D01*
X132462446Y-85100925D01*
X132462442Y-85100927D01*
X132400214Y-85142506D01*
X132400211Y-85142508D01*
X132389899Y-85149399D01*
X132383008Y-85159711D01*
X132383006Y-85159714D01*
X132341427Y-85221942D01*
X132341425Y-85221946D01*
X132334534Y-85232260D01*
X132332113Y-85244429D01*
X132332113Y-85244430D01*
X132321206Y-85299258D01*
X132321204Y-85299268D01*
X132320000Y-85305326D01*
X132320000Y-85311513D01*
X132320000Y-85518340D01*
X132317544Y-85537000D01*
X132315000Y-85537000D01*
X132315000Y-85553590D01*
X132315000Y-85553591D01*
X132315000Y-89623000D01*
X132298119Y-89686000D01*
X132252000Y-89732119D01*
X132189000Y-89749000D01*
X126158000Y-89749000D01*
X126095000Y-89732119D01*
X126048881Y-89686000D01*
X126032000Y-89623000D01*
X126032000Y-84336500D01*
X126048881Y-84273500D01*
X126095000Y-84227381D01*
X126158000Y-84210500D01*
X126397910Y-84210500D01*
X126443090Y-84210500D01*
X128874000Y-84210500D01*
X128937000Y-84227381D01*
G37*
%TD.AperFunction*%
%TD*%
M02*
