M48
; DRILL file {KiCad (7.0.0)} date Thu Aug 31 15:40:21 2023
; FORMAT={-:-/ absolute / metric / decimal}
; #@! TF.CreationDate,2023-08-31T15:40:21+04:00
; #@! TF.GenerationSoftware,Kicad,Pcbnew,(7.0.0)
; #@! TF.FileFunction,Plated,1,4,PTH
FMAT,2
METRIC
; #@! TA.AperFunction,Plated,PTH,ViaDrill
T1C0.250
; #@! TA.AperFunction,Plated,PTH,ComponentDrill
T2C1.000
%
G90
G05
T1
X116.448Y-90.33
X116.448Y-94.33
X116.448Y-98.33
X116.448Y-102.33
X116.448Y-106.33
X116.448Y-110.33
X116.448Y-114.33
X120.448Y-90.33
X120.448Y-94.33
X120.448Y-98.33
X120.448Y-102.33
X120.448Y-106.33
X120.448Y-110.33
X120.448Y-114.33
X120.448Y-118.33
X125.448Y-86.21
X125.448Y-90.33
X125.448Y-94.33
X125.448Y-98.33
X125.448Y-102.33
X125.448Y-106.33
X125.448Y-110.33
X125.448Y-114.33
X125.448Y-118.33
X126.65Y-86.21
X127.92Y-87.81
X130.448Y-90.33
X130.448Y-94.33
X130.448Y-98.33
X130.448Y-102.33
X130.448Y-106.33
X130.448Y-114.33
X130.448Y-118.33
X133.62Y-84.73
X135.448Y-98.33
X135.448Y-102.33
X135.448Y-114.33
X135.448Y-118.33
X136.02Y-84.73
X138.421Y-84.73
X140.448Y-98.33
X140.448Y-102.33
X140.448Y-110.33
X140.448Y-114.33
X140.448Y-118.33
X140.82Y-84.73
X143.22Y-84.73
X145.448Y-114.33
X145.448Y-118.33
X145.62Y-84.73
X146.72Y-107.4
X148.02Y-84.73
X149.421Y-104.2
X150.32Y-108.8
X150.421Y-84.73
X150.448Y-90.33
X150.448Y-114.33
X150.448Y-118.33
X151.215Y-104.2
X151.472Y-105.67
X151.697Y-108.8
X152.4Y-108.8
X152.421Y-104.2
X152.72Y-107.4
X152.82Y-84.73
X154.52Y-108.8
X155.22Y-84.73
X155.274Y-104.2
X155.448Y-90.33
X155.448Y-94.33
X155.448Y-114.33
X155.448Y-118.33
X156.134Y-108.8
X157.62Y-84.73
X160.02Y-84.73
X160.448Y-90.33
X160.448Y-94.33
X160.448Y-98.33
X160.448Y-114.33
X160.448Y-118.33
X162.421Y-84.73
X164.82Y-84.73
X165.448Y-90.33
X165.448Y-94.33
X165.448Y-98.33
X165.448Y-114.33
X165.448Y-118.33
X167.22Y-84.73
X169.62Y-84.73
X170.448Y-90.33
X170.448Y-94.33
X170.448Y-98.33
X170.448Y-114.33
X170.448Y-118.33
X172.02Y-84.73
X175.448Y-90.33
X175.448Y-94.33
X175.448Y-98.33
X175.448Y-102.33
X175.448Y-106.33
X175.448Y-110.09
X175.448Y-114.33
X175.448Y-118.33
X175.65Y-86.21
X176.92Y-87.81
X178.19Y-86.21
X178.79Y-97.966
X178.79Y-101.919
X180.448Y-86.21
X180.448Y-90.33
X180.448Y-94.33
X180.448Y-98.33
X180.448Y-102.33
X180.448Y-106.33
X180.448Y-110.09
X180.448Y-114.33
X180.448Y-118.33
X185.448Y-90.33
X185.448Y-94.33
X185.448Y-98.33
X185.448Y-102.33
X185.448Y-106.33
X185.448Y-110.09
X185.448Y-114.33
X185.448Y-118.33
X188.448Y-90.33
X188.448Y-94.33
X188.448Y-98.33
X188.448Y-102.33
X188.448Y-106.33
X188.448Y-110.09
X188.448Y-114.33
T2
X131.88Y-104.472
X131.88Y-108.347
X131.88Y-110.887
X134.421Y-104.472
X134.421Y-108.347
X134.421Y-110.887
X170.421Y-102.8
X170.421Y-105.34
X170.421Y-107.88
X170.421Y-110.42
X172.96Y-102.8
X172.96Y-105.34
X172.96Y-107.88
X172.96Y-110.42
X182.087Y-98.71
X182.087Y-101.25
T0
M30
