%TF.GenerationSoftware,KiCad,Pcbnew,(7.0.0)*%
%TF.CreationDate,2023-08-31T15:59:46+04:00*%
%TF.ProjectId,RD53B_Quad_ZIF_to_ERF8_Data_Adapter,52443533-425f-4517-9561-645f5a49465f,V0*%
%TF.SameCoordinates,Original*%
%TF.FileFunction,Soldermask,Top*%
%TF.FilePolarity,Negative*%
%FSLAX46Y46*%
G04 Gerber Fmt 4.6, Leading zero omitted, Abs format (unit mm)*
G04 Created by KiCad (PCBNEW (7.0.0)) date 2023-08-31 15:59:46*
%MOMM*%
%LPD*%
G01*
G04 APERTURE LIST*
G04 Aperture macros list*
%AMRoundRect*
0 Rectangle with rounded corners*
0 $1 Rounding radius*
0 $2 $3 $4 $5 $6 $7 $8 $9 X,Y pos of 4 corners*
0 Add a 4 corners polygon primitive as box body*
4,1,4,$2,$3,$4,$5,$6,$7,$8,$9,$2,$3,0*
0 Add four circle primitives for the rounded corners*
1,1,$1+$1,$2,$3*
1,1,$1+$1,$4,$5*
1,1,$1+$1,$6,$7*
1,1,$1+$1,$8,$9*
0 Add four rect primitives between the rounded corners*
20,1,$1+$1,$2,$3,$4,$5,0*
20,1,$1+$1,$4,$5,$6,$7,0*
20,1,$1+$1,$6,$7,$8,$9,0*
20,1,$1+$1,$8,$9,$2,$3,0*%
G04 Aperture macros list end*
%ADD10R,1.700000X1.700000*%
%ADD11O,1.700000X1.700000*%
%ADD12C,2.220000*%
%ADD13R,0.500000X1.480000*%
%ADD14R,1.500000X2.000000*%
%ADD15C,3.200000*%
%ADD16RoundRect,0.250000X0.475000X-0.250000X0.475000X0.250000X-0.475000X0.250000X-0.475000X-0.250000X0*%
%ADD17R,0.300000X0.700000*%
%ADD18R,0.300000X0.500000*%
%ADD19R,0.350000X1.000000*%
%ADD20C,2.000000*%
G04 APERTURE END LIST*
D10*
%TO.C,J2*%
X134420499Y-104471999D03*
D11*
X131880499Y-104471999D03*
%TD*%
D12*
%TO.C,J5*%
X130310500Y-88010000D03*
D13*
X132820499Y-86069999D03*
X133620499Y-86069999D03*
X134420499Y-86069999D03*
X135220499Y-86069999D03*
X136020499Y-86069999D03*
X136820499Y-86069999D03*
X137620499Y-86069999D03*
X138420499Y-86069999D03*
X139220499Y-86069999D03*
X140020499Y-86069999D03*
X140820499Y-86069999D03*
X141620499Y-86069999D03*
X142420499Y-86069999D03*
X143220499Y-86069999D03*
X144020499Y-86069999D03*
X144820499Y-86069999D03*
X145620499Y-86069999D03*
X146420499Y-86069999D03*
X147220499Y-86069999D03*
X148020499Y-86069999D03*
X148820499Y-86069999D03*
X149620499Y-86069999D03*
X150420499Y-86069999D03*
X151220499Y-86069999D03*
X152020499Y-86069999D03*
X152820499Y-86069999D03*
X153620499Y-86069999D03*
X154420499Y-86069999D03*
X155220499Y-86069999D03*
X156020499Y-86069999D03*
X156820499Y-86069999D03*
X157620499Y-86069999D03*
X158420499Y-86069999D03*
X159220499Y-86069999D03*
X160020499Y-86069999D03*
X160820499Y-86069999D03*
X161620499Y-86069999D03*
X162420499Y-86069999D03*
X163220499Y-86069999D03*
X164020499Y-86069999D03*
X164820499Y-86069999D03*
X165620499Y-86069999D03*
X166420499Y-86069999D03*
X167220499Y-86069999D03*
X168020499Y-86069999D03*
X168820499Y-86069999D03*
X169620499Y-86069999D03*
X170420499Y-86069999D03*
X171220499Y-86069999D03*
X172020499Y-86069999D03*
D14*
X127920499Y-86209999D03*
X176920499Y-86209999D03*
%TD*%
D15*
%TO.C,*%
X118448000Y-116510000D03*
%TD*%
%TO.C,*%
X186448000Y-87010000D03*
%TD*%
D16*
%TO.C,C1*%
X178790000Y-100886000D03*
X178790000Y-98986000D03*
%TD*%
D17*
%TO.C,J_conn1*%
X146720499Y-108088500D03*
D18*
X147020499Y-104988500D03*
D17*
X147320499Y-108088500D03*
D18*
X147620499Y-104988500D03*
D17*
X147920499Y-108088500D03*
D18*
X148220499Y-104988500D03*
D17*
X148520499Y-108088500D03*
D18*
X148820499Y-104988500D03*
D17*
X149120499Y-108088500D03*
D18*
X149420499Y-104988500D03*
D17*
X149720499Y-108088500D03*
D18*
X150020499Y-104988500D03*
D17*
X150320499Y-108088500D03*
D18*
X150620499Y-104988500D03*
D17*
X150920499Y-108088500D03*
D18*
X151220499Y-104988500D03*
D17*
X151520499Y-108088500D03*
D18*
X151820499Y-104988500D03*
D17*
X152120499Y-108088500D03*
D18*
X152420499Y-104988500D03*
D17*
X152720499Y-108088500D03*
D18*
X153020499Y-104988500D03*
D17*
X153320499Y-108088500D03*
D18*
X153620499Y-104988500D03*
D17*
X153920499Y-108088500D03*
D18*
X154220499Y-104988500D03*
D17*
X154520499Y-108088500D03*
D18*
X154820499Y-104988500D03*
D17*
X155120499Y-108088500D03*
D18*
X155420499Y-104988500D03*
D17*
X155720499Y-108088500D03*
D18*
X156020499Y-104988500D03*
D17*
X156320499Y-108088500D03*
D18*
X156620499Y-104988500D03*
D17*
X156920499Y-108088500D03*
D18*
X157220499Y-104988500D03*
D17*
X157520499Y-108088500D03*
D18*
X157820499Y-104988500D03*
D17*
X158120499Y-108088500D03*
D19*
X145720499Y-107838500D03*
X159120499Y-107838500D03*
%TD*%
D10*
%TO.C,J4*%
X170420499Y-102799999D03*
D11*
X172960499Y-102799999D03*
X170420499Y-105339999D03*
X172960499Y-105339999D03*
X170420499Y-107879999D03*
X172960499Y-107879999D03*
X170420499Y-110419999D03*
X172960499Y-110419999D03*
%TD*%
D10*
%TO.C,J3*%
X134420499Y-110886999D03*
D11*
X131880499Y-110886999D03*
X134420499Y-108346999D03*
X131880499Y-108346999D03*
%TD*%
D15*
%TO.C,*%
X118448000Y-87010000D03*
%TD*%
D10*
%TO.C,J6*%
X182086999Y-101249999D03*
D11*
X182086999Y-98709999D03*
%TD*%
D20*
%TO.C,REF\u002A\u002A*%
X122972000Y-116430000D03*
%TD*%
D15*
%TO.C,*%
X186448000Y-116510000D03*
%TD*%
M02*
