%TF.GenerationSoftware,KiCad,Pcbnew,(7.0.0)*%
%TF.CreationDate,2023-08-31T15:59:46+04:00*%
%TF.ProjectId,RD53B_Quad_ZIF_to_ERF8_Data_Adapter,52443533-425f-4517-9561-645f5a49465f,V0*%
%TF.SameCoordinates,Original*%
%TF.FileFunction,Paste,Top*%
%TF.FilePolarity,Positive*%
%FSLAX46Y46*%
G04 Gerber Fmt 4.6, Leading zero omitted, Abs format (unit mm)*
G04 Created by KiCad (PCBNEW (7.0.0)) date 2023-08-31 15:59:46*
%MOMM*%
%LPD*%
G01*
G04 APERTURE LIST*
G04 Aperture macros list*
%AMRoundRect*
0 Rectangle with rounded corners*
0 $1 Rounding radius*
0 $2 $3 $4 $5 $6 $7 $8 $9 X,Y pos of 4 corners*
0 Add a 4 corners polygon primitive as box body*
4,1,4,$2,$3,$4,$5,$6,$7,$8,$9,$2,$3,0*
0 Add four circle primitives for the rounded corners*
1,1,$1+$1,$2,$3*
1,1,$1+$1,$4,$5*
1,1,$1+$1,$6,$7*
1,1,$1+$1,$8,$9*
0 Add four rect primitives between the rounded corners*
20,1,$1+$1,$2,$3,$4,$5,0*
20,1,$1+$1,$4,$5,$6,$7,0*
20,1,$1+$1,$6,$7,$8,$9,0*
20,1,$1+$1,$8,$9,$2,$3,0*%
G04 Aperture macros list end*
%ADD10C,0.010000*%
%ADD11R,1.500000X2.000000*%
%ADD12RoundRect,0.250000X0.475000X-0.250000X0.475000X0.250000X-0.475000X0.250000X-0.475000X-0.250000X0*%
%ADD13R,0.300000X0.700000*%
%ADD14R,0.300000X0.500000*%
%ADD15R,0.350000X1.000000*%
G04 APERTURE END LIST*
%TO.C,J5*%
G36*
X133000500Y-86240000D02*
G01*
X133000500Y-87510000D01*
X132640500Y-87510000D01*
X132640500Y-86240000D01*
X132820500Y-85980000D01*
X133000500Y-86240000D01*
G37*
D10*
X133000500Y-86240000D02*
X133000500Y-87510000D01*
X132640500Y-87510000D01*
X132640500Y-86240000D01*
X132820500Y-85980000D01*
X133000500Y-86240000D01*
G36*
X133800500Y-86240000D02*
G01*
X133800500Y-87510000D01*
X133440500Y-87510000D01*
X133440500Y-86240000D01*
X133620500Y-85980000D01*
X133800500Y-86240000D01*
G37*
X133800500Y-86240000D02*
X133800500Y-87510000D01*
X133440500Y-87510000D01*
X133440500Y-86240000D01*
X133620500Y-85980000D01*
X133800500Y-86240000D01*
G36*
X134600500Y-86240000D02*
G01*
X134600500Y-87510000D01*
X134240500Y-87510000D01*
X134240500Y-86240000D01*
X134420500Y-85980000D01*
X134600500Y-86240000D01*
G37*
X134600500Y-86240000D02*
X134600500Y-87510000D01*
X134240500Y-87510000D01*
X134240500Y-86240000D01*
X134420500Y-85980000D01*
X134600500Y-86240000D01*
G36*
X135400500Y-86240000D02*
G01*
X135400500Y-87510000D01*
X135040500Y-87510000D01*
X135040500Y-86240000D01*
X135220500Y-85980000D01*
X135400500Y-86240000D01*
G37*
X135400500Y-86240000D02*
X135400500Y-87510000D01*
X135040500Y-87510000D01*
X135040500Y-86240000D01*
X135220500Y-85980000D01*
X135400500Y-86240000D01*
G36*
X136200500Y-86240000D02*
G01*
X136200500Y-87510000D01*
X135840500Y-87510000D01*
X135840500Y-86240000D01*
X136020500Y-85980000D01*
X136200500Y-86240000D01*
G37*
X136200500Y-86240000D02*
X136200500Y-87510000D01*
X135840500Y-87510000D01*
X135840500Y-86240000D01*
X136020500Y-85980000D01*
X136200500Y-86240000D01*
G36*
X137000500Y-86240000D02*
G01*
X137000500Y-87510000D01*
X136640500Y-87510000D01*
X136640500Y-86240000D01*
X136820500Y-85980000D01*
X137000500Y-86240000D01*
G37*
X137000500Y-86240000D02*
X137000500Y-87510000D01*
X136640500Y-87510000D01*
X136640500Y-86240000D01*
X136820500Y-85980000D01*
X137000500Y-86240000D01*
G36*
X137800500Y-86240000D02*
G01*
X137800500Y-87510000D01*
X137440500Y-87510000D01*
X137440500Y-86240000D01*
X137620500Y-85980000D01*
X137800500Y-86240000D01*
G37*
X137800500Y-86240000D02*
X137800500Y-87510000D01*
X137440500Y-87510000D01*
X137440500Y-86240000D01*
X137620500Y-85980000D01*
X137800500Y-86240000D01*
G36*
X138600500Y-86240000D02*
G01*
X138600500Y-87510000D01*
X138240500Y-87510000D01*
X138240500Y-86240000D01*
X138420500Y-85980000D01*
X138600500Y-86240000D01*
G37*
X138600500Y-86240000D02*
X138600500Y-87510000D01*
X138240500Y-87510000D01*
X138240500Y-86240000D01*
X138420500Y-85980000D01*
X138600500Y-86240000D01*
G36*
X139400500Y-86240000D02*
G01*
X139400500Y-87510000D01*
X139040500Y-87510000D01*
X139040500Y-86240000D01*
X139220500Y-85980000D01*
X139400500Y-86240000D01*
G37*
X139400500Y-86240000D02*
X139400500Y-87510000D01*
X139040500Y-87510000D01*
X139040500Y-86240000D01*
X139220500Y-85980000D01*
X139400500Y-86240000D01*
G36*
X140200500Y-86240000D02*
G01*
X140200500Y-87510000D01*
X139840500Y-87510000D01*
X139840500Y-86240000D01*
X140020500Y-85980000D01*
X140200500Y-86240000D01*
G37*
X140200500Y-86240000D02*
X140200500Y-87510000D01*
X139840500Y-87510000D01*
X139840500Y-86240000D01*
X140020500Y-85980000D01*
X140200500Y-86240000D01*
G36*
X141000500Y-86240000D02*
G01*
X141000500Y-87510000D01*
X140640500Y-87510000D01*
X140640500Y-86240000D01*
X140820500Y-85980000D01*
X141000500Y-86240000D01*
G37*
X141000500Y-86240000D02*
X141000500Y-87510000D01*
X140640500Y-87510000D01*
X140640500Y-86240000D01*
X140820500Y-85980000D01*
X141000500Y-86240000D01*
G36*
X141800500Y-86240000D02*
G01*
X141800500Y-87510000D01*
X141440500Y-87510000D01*
X141440500Y-86240000D01*
X141620500Y-85980000D01*
X141800500Y-86240000D01*
G37*
X141800500Y-86240000D02*
X141800500Y-87510000D01*
X141440500Y-87510000D01*
X141440500Y-86240000D01*
X141620500Y-85980000D01*
X141800500Y-86240000D01*
G36*
X142600500Y-86240000D02*
G01*
X142600500Y-87510000D01*
X142240500Y-87510000D01*
X142240500Y-86240000D01*
X142420500Y-85980000D01*
X142600500Y-86240000D01*
G37*
X142600500Y-86240000D02*
X142600500Y-87510000D01*
X142240500Y-87510000D01*
X142240500Y-86240000D01*
X142420500Y-85980000D01*
X142600500Y-86240000D01*
G36*
X143400500Y-86240000D02*
G01*
X143400500Y-87510000D01*
X143040500Y-87510000D01*
X143040500Y-86240000D01*
X143220500Y-85980000D01*
X143400500Y-86240000D01*
G37*
X143400500Y-86240000D02*
X143400500Y-87510000D01*
X143040500Y-87510000D01*
X143040500Y-86240000D01*
X143220500Y-85980000D01*
X143400500Y-86240000D01*
G36*
X144200500Y-86240000D02*
G01*
X144200500Y-87510000D01*
X143840500Y-87510000D01*
X143840500Y-86240000D01*
X144020500Y-85980000D01*
X144200500Y-86240000D01*
G37*
X144200500Y-86240000D02*
X144200500Y-87510000D01*
X143840500Y-87510000D01*
X143840500Y-86240000D01*
X144020500Y-85980000D01*
X144200500Y-86240000D01*
G36*
X145000500Y-86240000D02*
G01*
X145000500Y-87510000D01*
X144640500Y-87510000D01*
X144640500Y-86240000D01*
X144820500Y-85980000D01*
X145000500Y-86240000D01*
G37*
X145000500Y-86240000D02*
X145000500Y-87510000D01*
X144640500Y-87510000D01*
X144640500Y-86240000D01*
X144820500Y-85980000D01*
X145000500Y-86240000D01*
G36*
X145800500Y-86240000D02*
G01*
X145800500Y-87510000D01*
X145440500Y-87510000D01*
X145440500Y-86240000D01*
X145620500Y-85980000D01*
X145800500Y-86240000D01*
G37*
X145800500Y-86240000D02*
X145800500Y-87510000D01*
X145440500Y-87510000D01*
X145440500Y-86240000D01*
X145620500Y-85980000D01*
X145800500Y-86240000D01*
G36*
X146600500Y-86240000D02*
G01*
X146600500Y-87510000D01*
X146240500Y-87510000D01*
X146240500Y-86240000D01*
X146420500Y-85980000D01*
X146600500Y-86240000D01*
G37*
X146600500Y-86240000D02*
X146600500Y-87510000D01*
X146240500Y-87510000D01*
X146240500Y-86240000D01*
X146420500Y-85980000D01*
X146600500Y-86240000D01*
G36*
X147400500Y-86240000D02*
G01*
X147400500Y-87510000D01*
X147040500Y-87510000D01*
X147040500Y-86240000D01*
X147220500Y-85980000D01*
X147400500Y-86240000D01*
G37*
X147400500Y-86240000D02*
X147400500Y-87510000D01*
X147040500Y-87510000D01*
X147040500Y-86240000D01*
X147220500Y-85980000D01*
X147400500Y-86240000D01*
G36*
X148200500Y-86240000D02*
G01*
X148200500Y-87510000D01*
X147840500Y-87510000D01*
X147840500Y-86240000D01*
X148020500Y-85980000D01*
X148200500Y-86240000D01*
G37*
X148200500Y-86240000D02*
X148200500Y-87510000D01*
X147840500Y-87510000D01*
X147840500Y-86240000D01*
X148020500Y-85980000D01*
X148200500Y-86240000D01*
G36*
X149000500Y-86240000D02*
G01*
X149000500Y-87510000D01*
X148640500Y-87510000D01*
X148640500Y-86240000D01*
X148820500Y-85980000D01*
X149000500Y-86240000D01*
G37*
X149000500Y-86240000D02*
X149000500Y-87510000D01*
X148640500Y-87510000D01*
X148640500Y-86240000D01*
X148820500Y-85980000D01*
X149000500Y-86240000D01*
G36*
X149800500Y-86240000D02*
G01*
X149800500Y-87510000D01*
X149440500Y-87510000D01*
X149440500Y-86240000D01*
X149620500Y-85980000D01*
X149800500Y-86240000D01*
G37*
X149800500Y-86240000D02*
X149800500Y-87510000D01*
X149440500Y-87510000D01*
X149440500Y-86240000D01*
X149620500Y-85980000D01*
X149800500Y-86240000D01*
G36*
X150600500Y-86240000D02*
G01*
X150600500Y-87510000D01*
X150240500Y-87510000D01*
X150240500Y-86240000D01*
X150420500Y-85980000D01*
X150600500Y-86240000D01*
G37*
X150600500Y-86240000D02*
X150600500Y-87510000D01*
X150240500Y-87510000D01*
X150240500Y-86240000D01*
X150420500Y-85980000D01*
X150600500Y-86240000D01*
G36*
X151400500Y-86240000D02*
G01*
X151400500Y-87510000D01*
X151040500Y-87510000D01*
X151040500Y-86240000D01*
X151220500Y-85980000D01*
X151400500Y-86240000D01*
G37*
X151400500Y-86240000D02*
X151400500Y-87510000D01*
X151040500Y-87510000D01*
X151040500Y-86240000D01*
X151220500Y-85980000D01*
X151400500Y-86240000D01*
G36*
X152200500Y-86240000D02*
G01*
X152200500Y-87510000D01*
X151840500Y-87510000D01*
X151840500Y-86240000D01*
X152020500Y-85980000D01*
X152200500Y-86240000D01*
G37*
X152200500Y-86240000D02*
X152200500Y-87510000D01*
X151840500Y-87510000D01*
X151840500Y-86240000D01*
X152020500Y-85980000D01*
X152200500Y-86240000D01*
G36*
X153000500Y-86240000D02*
G01*
X153000500Y-87510000D01*
X152640500Y-87510000D01*
X152640500Y-86240000D01*
X152820500Y-85980000D01*
X153000500Y-86240000D01*
G37*
X153000500Y-86240000D02*
X153000500Y-87510000D01*
X152640500Y-87510000D01*
X152640500Y-86240000D01*
X152820500Y-85980000D01*
X153000500Y-86240000D01*
G36*
X153800500Y-86240000D02*
G01*
X153800500Y-87510000D01*
X153440500Y-87510000D01*
X153440500Y-86240000D01*
X153620500Y-85980000D01*
X153800500Y-86240000D01*
G37*
X153800500Y-86240000D02*
X153800500Y-87510000D01*
X153440500Y-87510000D01*
X153440500Y-86240000D01*
X153620500Y-85980000D01*
X153800500Y-86240000D01*
G36*
X154600500Y-86240000D02*
G01*
X154600500Y-87510000D01*
X154240500Y-87510000D01*
X154240500Y-86240000D01*
X154420500Y-85980000D01*
X154600500Y-86240000D01*
G37*
X154600500Y-86240000D02*
X154600500Y-87510000D01*
X154240500Y-87510000D01*
X154240500Y-86240000D01*
X154420500Y-85980000D01*
X154600500Y-86240000D01*
G36*
X155400500Y-86240000D02*
G01*
X155400500Y-87510000D01*
X155040500Y-87510000D01*
X155040500Y-86240000D01*
X155220500Y-85980000D01*
X155400500Y-86240000D01*
G37*
X155400500Y-86240000D02*
X155400500Y-87510000D01*
X155040500Y-87510000D01*
X155040500Y-86240000D01*
X155220500Y-85980000D01*
X155400500Y-86240000D01*
G36*
X156200500Y-86240000D02*
G01*
X156200500Y-87510000D01*
X155840500Y-87510000D01*
X155840500Y-86240000D01*
X156020500Y-85980000D01*
X156200500Y-86240000D01*
G37*
X156200500Y-86240000D02*
X156200500Y-87510000D01*
X155840500Y-87510000D01*
X155840500Y-86240000D01*
X156020500Y-85980000D01*
X156200500Y-86240000D01*
G36*
X157000500Y-86240000D02*
G01*
X157000500Y-87510000D01*
X156640500Y-87510000D01*
X156640500Y-86240000D01*
X156820500Y-85980000D01*
X157000500Y-86240000D01*
G37*
X157000500Y-86240000D02*
X157000500Y-87510000D01*
X156640500Y-87510000D01*
X156640500Y-86240000D01*
X156820500Y-85980000D01*
X157000500Y-86240000D01*
G36*
X157800500Y-86240000D02*
G01*
X157800500Y-87510000D01*
X157440500Y-87510000D01*
X157440500Y-86240000D01*
X157620500Y-85980000D01*
X157800500Y-86240000D01*
G37*
X157800500Y-86240000D02*
X157800500Y-87510000D01*
X157440500Y-87510000D01*
X157440500Y-86240000D01*
X157620500Y-85980000D01*
X157800500Y-86240000D01*
G36*
X158600500Y-86240000D02*
G01*
X158600500Y-87510000D01*
X158240500Y-87510000D01*
X158240500Y-86240000D01*
X158420500Y-85980000D01*
X158600500Y-86240000D01*
G37*
X158600500Y-86240000D02*
X158600500Y-87510000D01*
X158240500Y-87510000D01*
X158240500Y-86240000D01*
X158420500Y-85980000D01*
X158600500Y-86240000D01*
G36*
X159400500Y-86240000D02*
G01*
X159400500Y-87510000D01*
X159040500Y-87510000D01*
X159040500Y-86240000D01*
X159220500Y-85980000D01*
X159400500Y-86240000D01*
G37*
X159400500Y-86240000D02*
X159400500Y-87510000D01*
X159040500Y-87510000D01*
X159040500Y-86240000D01*
X159220500Y-85980000D01*
X159400500Y-86240000D01*
G36*
X160200500Y-86240000D02*
G01*
X160200500Y-87510000D01*
X159840500Y-87510000D01*
X159840500Y-86240000D01*
X160020500Y-85980000D01*
X160200500Y-86240000D01*
G37*
X160200500Y-86240000D02*
X160200500Y-87510000D01*
X159840500Y-87510000D01*
X159840500Y-86240000D01*
X160020500Y-85980000D01*
X160200500Y-86240000D01*
G36*
X161000500Y-86240000D02*
G01*
X161000500Y-87510000D01*
X160640500Y-87510000D01*
X160640500Y-86240000D01*
X160820500Y-85980000D01*
X161000500Y-86240000D01*
G37*
X161000500Y-86240000D02*
X161000500Y-87510000D01*
X160640500Y-87510000D01*
X160640500Y-86240000D01*
X160820500Y-85980000D01*
X161000500Y-86240000D01*
G36*
X161800500Y-86240000D02*
G01*
X161800500Y-87510000D01*
X161440500Y-87510000D01*
X161440500Y-86240000D01*
X161620500Y-85980000D01*
X161800500Y-86240000D01*
G37*
X161800500Y-86240000D02*
X161800500Y-87510000D01*
X161440500Y-87510000D01*
X161440500Y-86240000D01*
X161620500Y-85980000D01*
X161800500Y-86240000D01*
G36*
X162600500Y-86240000D02*
G01*
X162600500Y-87510000D01*
X162240500Y-87510000D01*
X162240500Y-86240000D01*
X162420500Y-85980000D01*
X162600500Y-86240000D01*
G37*
X162600500Y-86240000D02*
X162600500Y-87510000D01*
X162240500Y-87510000D01*
X162240500Y-86240000D01*
X162420500Y-85980000D01*
X162600500Y-86240000D01*
G36*
X163400500Y-86240000D02*
G01*
X163400500Y-87510000D01*
X163040500Y-87510000D01*
X163040500Y-86240000D01*
X163220500Y-85980000D01*
X163400500Y-86240000D01*
G37*
X163400500Y-86240000D02*
X163400500Y-87510000D01*
X163040500Y-87510000D01*
X163040500Y-86240000D01*
X163220500Y-85980000D01*
X163400500Y-86240000D01*
G36*
X164200500Y-86240000D02*
G01*
X164200500Y-87510000D01*
X163840500Y-87510000D01*
X163840500Y-86240000D01*
X164020500Y-85980000D01*
X164200500Y-86240000D01*
G37*
X164200500Y-86240000D02*
X164200500Y-87510000D01*
X163840500Y-87510000D01*
X163840500Y-86240000D01*
X164020500Y-85980000D01*
X164200500Y-86240000D01*
G36*
X165000500Y-86240000D02*
G01*
X165000500Y-87510000D01*
X164640500Y-87510000D01*
X164640500Y-86240000D01*
X164820500Y-85980000D01*
X165000500Y-86240000D01*
G37*
X165000500Y-86240000D02*
X165000500Y-87510000D01*
X164640500Y-87510000D01*
X164640500Y-86240000D01*
X164820500Y-85980000D01*
X165000500Y-86240000D01*
G36*
X165800500Y-86240000D02*
G01*
X165800500Y-87510000D01*
X165440500Y-87510000D01*
X165440500Y-86240000D01*
X165620500Y-85980000D01*
X165800500Y-86240000D01*
G37*
X165800500Y-86240000D02*
X165800500Y-87510000D01*
X165440500Y-87510000D01*
X165440500Y-86240000D01*
X165620500Y-85980000D01*
X165800500Y-86240000D01*
G36*
X166600500Y-86240000D02*
G01*
X166600500Y-87510000D01*
X166240500Y-87510000D01*
X166240500Y-86240000D01*
X166420500Y-85980000D01*
X166600500Y-86240000D01*
G37*
X166600500Y-86240000D02*
X166600500Y-87510000D01*
X166240500Y-87510000D01*
X166240500Y-86240000D01*
X166420500Y-85980000D01*
X166600500Y-86240000D01*
G36*
X167400500Y-86240000D02*
G01*
X167400500Y-87510000D01*
X167040500Y-87510000D01*
X167040500Y-86240000D01*
X167220500Y-85980000D01*
X167400500Y-86240000D01*
G37*
X167400500Y-86240000D02*
X167400500Y-87510000D01*
X167040500Y-87510000D01*
X167040500Y-86240000D01*
X167220500Y-85980000D01*
X167400500Y-86240000D01*
G36*
X168200500Y-86240000D02*
G01*
X168200500Y-87510000D01*
X167840500Y-87510000D01*
X167840500Y-86240000D01*
X168020500Y-85980000D01*
X168200500Y-86240000D01*
G37*
X168200500Y-86240000D02*
X168200500Y-87510000D01*
X167840500Y-87510000D01*
X167840500Y-86240000D01*
X168020500Y-85980000D01*
X168200500Y-86240000D01*
G36*
X169000500Y-86240000D02*
G01*
X169000500Y-87510000D01*
X168640500Y-87510000D01*
X168640500Y-86240000D01*
X168820500Y-85980000D01*
X169000500Y-86240000D01*
G37*
X169000500Y-86240000D02*
X169000500Y-87510000D01*
X168640500Y-87510000D01*
X168640500Y-86240000D01*
X168820500Y-85980000D01*
X169000500Y-86240000D01*
G36*
X169800500Y-86240000D02*
G01*
X169800500Y-87510000D01*
X169440500Y-87510000D01*
X169440500Y-86240000D01*
X169620500Y-85980000D01*
X169800500Y-86240000D01*
G37*
X169800500Y-86240000D02*
X169800500Y-87510000D01*
X169440500Y-87510000D01*
X169440500Y-86240000D01*
X169620500Y-85980000D01*
X169800500Y-86240000D01*
G36*
X170600500Y-86240000D02*
G01*
X170600500Y-87510000D01*
X170240500Y-87510000D01*
X170240500Y-86240000D01*
X170420500Y-85980000D01*
X170600500Y-86240000D01*
G37*
X170600500Y-86240000D02*
X170600500Y-87510000D01*
X170240500Y-87510000D01*
X170240500Y-86240000D01*
X170420500Y-85980000D01*
X170600500Y-86240000D01*
G36*
X171400500Y-86240000D02*
G01*
X171400500Y-87510000D01*
X171040500Y-87510000D01*
X171040500Y-86240000D01*
X171220500Y-85980000D01*
X171400500Y-86240000D01*
G37*
X171400500Y-86240000D02*
X171400500Y-87510000D01*
X171040500Y-87510000D01*
X171040500Y-86240000D01*
X171220500Y-85980000D01*
X171400500Y-86240000D01*
G36*
X172200500Y-86240000D02*
G01*
X172200500Y-87510000D01*
X171840500Y-87510000D01*
X171840500Y-86240000D01*
X172020500Y-85980000D01*
X172200500Y-86240000D01*
G37*
X172200500Y-86240000D02*
X172200500Y-87510000D01*
X171840500Y-87510000D01*
X171840500Y-86240000D01*
X172020500Y-85980000D01*
X172200500Y-86240000D01*
%TD*%
D11*
%TO.C,J5*%
X127920499Y-86209999D03*
X176920499Y-86209999D03*
%TD*%
D12*
%TO.C,C1*%
X178790000Y-100886000D03*
X178790000Y-98986000D03*
%TD*%
D13*
%TO.C,J_conn1*%
X146720499Y-108088500D03*
D14*
X147020499Y-104988500D03*
D13*
X147320499Y-108088500D03*
D14*
X147620499Y-104988500D03*
D13*
X147920499Y-108088500D03*
D14*
X148220499Y-104988500D03*
D13*
X148520499Y-108088500D03*
D14*
X148820499Y-104988500D03*
D13*
X149120499Y-108088500D03*
D14*
X149420499Y-104988500D03*
D13*
X149720499Y-108088500D03*
D14*
X150020499Y-104988500D03*
D13*
X150320499Y-108088500D03*
D14*
X150620499Y-104988500D03*
D13*
X150920499Y-108088500D03*
D14*
X151220499Y-104988500D03*
D13*
X151520499Y-108088500D03*
D14*
X151820499Y-104988500D03*
D13*
X152120499Y-108088500D03*
D14*
X152420499Y-104988500D03*
D13*
X152720499Y-108088500D03*
D14*
X153020499Y-104988500D03*
D13*
X153320499Y-108088500D03*
D14*
X153620499Y-104988500D03*
D13*
X153920499Y-108088500D03*
D14*
X154220499Y-104988500D03*
D13*
X154520499Y-108088500D03*
D14*
X154820499Y-104988500D03*
D13*
X155120499Y-108088500D03*
D14*
X155420499Y-104988500D03*
D13*
X155720499Y-108088500D03*
D14*
X156020499Y-104988500D03*
D13*
X156320499Y-108088500D03*
D14*
X156620499Y-104988500D03*
D13*
X156920499Y-108088500D03*
D14*
X157220499Y-104988500D03*
D13*
X157520499Y-108088500D03*
D14*
X157820499Y-104988500D03*
D13*
X158120499Y-108088500D03*
D15*
X145720499Y-107838500D03*
X159120499Y-107838500D03*
%TD*%
M02*
